<?xml version="1.0" standalone="no"?>
<!DOCTYPE svg PUBLIC "-//W3C//DTD SVG 20010904//EN"
 "http://www.w3.org/TR/2001/REC-SVG-20010904/DTD/svg10.dtd">
<svg version="1.0" xmlns="http://www.w3.org/2000/svg"
 width="896.000000pt" height="1280.000000pt" viewBox="0 0 896.000000 1280.000000"
 preserveAspectRatio="xMidYMid meet">
<metadata>
Created by potrace 1.15, written by Peter Selinger 2001-2017
</metadata>
<g transform="translate(0.000000,1280.000000) scale(0.100000,-0.100000)"
fill="#000000" stroke="none">
<path d="M2937 12793 c-9 -15 37 -116 89 -195 89 -132 182 -332 204 -435 11
-51 24 -102 30 -113 9 -16 8 -20 -6 -20 -17 0 -18 0 12 -84 22 -62 11 -119
-23 -124 -33 -5 -28 -18 17 -47 35 -22 54 -55 32 -55 -4 0 -84 39 -177 86 -94
47 -204 103 -245 124 -41 21 -140 65 -220 98 -80 33 -179 76 -220 96 -41 20
-80 36 -87 36 -16 0 -17 26 -2 36 34 21 -94 32 -185 16 -58 -10 -55 -27 8 -47
34 -11 61 -27 71 -41 23 -36 54 -48 130 -48 79 -2 147 -28 225 -87 25 -19 72
-46 105 -59 106 -42 176 -80 360 -198 174 -111 242 -147 389 -207 38 -16 98
-52 133 -80 79 -63 228 -157 377 -237 115 -62 241 -142 252 -159 17 -28 -18
-18 -134 39 -449 217 -688 320 -937 402 -293 96 -531 240 -796 481 -107 97
-245 201 -310 234 -54 28 -59 39 -29 55 11 6 20 17 20 24 0 19 30 26 135 32
127 9 232 -8 262 -40 24 -26 30 -26 90 0 84 38 488 -80 567 -164 27 -29 91
-60 102 -49 11 11 -11 37 -44 53 -20 9 -57 30 -81 46 -25 17 -56 35 -70 41
-25 10 -24 11 19 17 l45 6 -68 32 c-111 53 -155 60 -482 83 -88 6 -196 17
-240 25 -104 18 -196 18 -270 -2 -88 -22 -120 -44 -120 -80 0 -25 7 -33 56
-59 31 -16 80 -48 110 -71 30 -22 75 -53 101 -68 26 -14 52 -35 57 -45 5 -9
29 -30 53 -46 85 -57 133 -115 95 -115 -7 0 -49 15 -93 34 -233 98 -524 124
-660 60 -19 -9 -98 -85 -177 -169 -185 -198 -211 -245 -242 -447 -4 -25 -12
-39 -26 -43 -35 -11 -89 -66 -115 -116 -98 -195 -17 -484 159 -559 28 -12 55
-28 59 -34 16 -23 7 -82 -31 -204 -85 -276 -101 -330 -101 -346 0 -33 -61
-174 -116 -266 -108 -183 -120 -216 -88 -251 21 -23 10 -63 -14 -54 -33 13
-36 10 -53 -42 -10 -29 -27 -66 -39 -83 -60 -84 -97 -234 -110 -454 -13 -213
-22 -238 -126 -372 -69 -88 -203 -330 -254 -457 -17 -43 -40 -120 -51 -170
-40 -182 -80 -331 -118 -430 -74 -195 -148 -535 -138 -631 19 -187 231 -352
426 -332 34 3 88 9 120 12 77 8 124 -8 159 -54 23 -31 27 -46 30 -116 2 -50
-2 -107 -12 -149 -9 -38 -16 -103 -16 -145 0 -135 56 -214 202 -288 82 -41
133 -78 142 -100 3 -8 -14 -75 -39 -148 -29 -85 -45 -149 -45 -181 0 -49 1
-50 89 -134 159 -153 202 -300 150 -504 -53 -206 26 -369 223 -462 109 -51
174 -65 383 -79 l190 -14 110 -46 c120 -50 162 -71 275 -136 41 -23 115 -57
165 -75 173 -61 244 -95 269 -129 48 -64 76 -176 131 -511 62 -375 93 -474
297 -950 64 -148 147 -389 170 -490 20 -90 16 -414 -6 -534 -25 -139 -101
-434 -135 -526 -45 -125 -74 -312 -75 -496 -1 -141 1 -159 18 -178 22 -25 109
-53 216 -71 185 -31 714 23 1225 125 378 76 535 130 754 260 176 104 938 684
1276 971 94 79 207 168 252 196 45 29 126 83 180 119 54 36 216 129 360 207
144 77 279 152 300 165 21 13 90 46 153 73 133 57 159 76 166 125 20 126 -148
474 -371 769 -104 137 -173 218 -333 385 -201 210 -252 283 -387 555 -76 152
-165 319 -187 352 -12 17 6 37 95 101 51 37 95 131 108 229 14 105 25 128 61
128 16 0 38 5 50 11 11 6 21 9 23 7 2 -2 -3 -39 -11 -83 -54 -310 -31 -588 63
-768 39 -73 137 -173 248 -252 255 -182 533 -238 636 -129 l24 25 -21 37 c-28
49 -188 189 -264 233 -34 19 -93 57 -132 85 -44 32 -93 58 -129 68 -85 23
-118 84 -98 177 10 44 23 62 138 178 l128 130 74 -75 c96 -97 274 -233 419
-319 186 -111 449 -241 503 -249 107 -16 217 35 217 100 0 47 -37 86 -185 197
-168 127 -320 221 -440 271 -50 20 -99 49 -115 66 -22 23 -37 30 -67 30 -59 0
-71 12 -54 52 7 18 17 56 22 83 34 180 37 184 139 250 48 31 75 56 91 87 20
35 41 52 114 94 111 63 182 131 221 209 39 80 41 194 5 303 -43 133 -67 161
-290 347 -183 153 -208 177 -243 239 -55 97 -75 124 -120 156 -63 46 -105 47
-236 6 -137 -43 -147 -49 -193 -97 -20 -22 -41 -39 -48 -39 -39 0 -103 127
-105 210 -1 41 1 46 34 62 19 9 67 27 107 39 99 29 186 82 264 159 80 79 110
138 150 295 63 249 106 562 134 975 8 124 20 250 26 280 11 53 11 55 -17 79
-18 14 -24 26 -17 28 105 35 193 249 223 542 33 331 -14 600 -166 950 -99 225
-155 315 -266 425 -70 68 -84 77 -108 73 l-28 -6 5 82 c8 130 -41 277 -160
480 -140 236 -293 403 -504 549 -244 169 -351 207 -483 173 -22 -5 -28 0 -52
42 -65 116 -246 291 -358 345 -36 17 -87 45 -115 63 -225 140 -597 223 -1085
242 -180 6 -314 -4 -451 -36 -93 -22 -218 -35 -474 -51 -93 -6 -190 -12 -214
-14 -44 -4 -47 -2 -140 83 -174 157 -344 286 -525 398 -152 94 -284 150 -299
126z m197 -114 c72 -35 189 -125 368 -284 64 -57 123 -107 130 -112 8 -4 29
-29 46 -55 18 -25 76 -91 129 -146 145 -147 208 -268 253 -482 36 -169 60
-231 140 -357 8 -12 11 -25 7 -29 -20 -20 -133 137 -175 240 -19 47 -45 82
-111 151 -47 50 -131 155 -185 235 -133 194 -216 306 -310 418 -71 85 -156
162 -177 162 -21 0 -6 -22 30 -46 22 -14 51 -43 65 -64 14 -22 54 -74 89 -117
35 -44 89 -121 121 -173 32 -52 73 -113 91 -135 17 -22 71 -95 118 -162 48
-67 111 -150 140 -185 72 -85 107 -138 107 -163 0 -11 11 -41 25 -66 40 -76
11 -80 -84 -10 -36 26 -122 84 -191 127 -147 93 -229 171 -300 287 -62 101
-97 189 -150 382 -57 209 -155 404 -240 480 -25 22 -60 96 -60 127 0 17 5 20
29 15 17 -4 59 -21 95 -38z m2337 -484 c193 -39 287 -63 295 -76 8 -14 -24
-10 -141 17 -266 61 -405 79 -420 54 -4 -6 -16 -3 -32 10 -14 11 -32 20 -39
20 -7 0 -16 5 -20 12 -12 20 168 1 357 -37z m-485 -34 c-4 -5 -39 -22 -79 -37
-39 -15 -78 -33 -86 -40 -25 -23 15 -28 65 -9 57 22 68 13 20 -16 -34 -20 -40
-39 -12 -39 7 0 51 18 98 40 92 43 208 74 239 65 10 -4 19 -15 19 -26 0 -13 7
-19 24 -19 12 0 36 -4 52 -10 16 -5 78 -16 137 -25 105 -14 177 -37 177 -57 0
-5 -8 -7 -17 -4 -57 16 -184 28 -246 23 -96 -7 -175 -38 -237 -93 -57 -52 -72
-95 -17 -50 93 75 213 111 352 103 105 -6 181 -28 227 -68 29 -25 30 -28 12
-29 -11 0 -54 12 -94 26 -151 52 -296 54 -379 3 -45 -27 -35 -33 23 -13 58 20
211 15 267 -9 64 -27 161 -110 224 -194 57 -76 305 -343 305 -329 0 15 -61
126 -85 155 -21 24 -23 31 -11 31 54 0 176 -209 197 -337 13 -82 21 -98 43
-90 32 13 14 108 -45 236 -33 71 -54 99 -139 186 -55 55 -100 104 -100 109 0
28 213 -171 269 -252 18 -26 26 -30 37 -21 20 16 30 -15 15 -47 -6 -14 -8 -36
-5 -50 7 -26 24 -33 24 -9 0 8 5 15 11 15 18 0 38 -65 45 -148 l7 -79 -54
-104 c-30 -57 -71 -121 -91 -143 -23 -23 -38 -49 -38 -64 0 -22 9 -16 83 54
45 43 83 81 84 84 1 3 4 17 7 32 8 36 39 51 108 53 45 1 63 6 82 24 33 31 51
100 41 159 -26 168 -26 180 2 116 24 -55 23 -265 -1 -348 -21 -69 -18 -102 25
-236 27 -81 30 -105 26 -165 -3 -38 -12 -88 -20 -110 l-15 -40 -5 35 c-3 19
-9 61 -12 94 -3 32 -8 63 -12 69 -9 15 -21 -21 -22 -68 -2 -60 -38 -227 -54
-242 -11 -11 -13 12 -13 146 1 115 -2 163 -11 172 -11 10 -13 -9 -13 -96 -1
-115 -19 -218 -43 -242 -12 -13 -18 -11 -41 10 -23 22 -26 32 -27 93 0 38 -4
78 -8 89 l-8 20 -6 -20 c-3 -11 -8 -43 -12 -70 -7 -54 -19 -84 -31 -73 -3 4
-10 43 -15 88 -6 60 -17 99 -44 155 -41 86 -61 98 -39 24 24 -79 13 -92 -26
-31 -18 28 -37 52 -41 52 -13 0 -11 -41 6 -96 23 -75 22 -75 -37 -57 -64 18
-83 34 -114 95 -28 55 -31 77 -9 58 26 -22 37 -1 33 64 -4 47 -1 70 13 98 11
21 19 55 19 76 0 30 6 43 23 55 20 13 22 22 22 108 0 85 -3 101 -32 161 -81
172 -174 270 -329 348 -60 30 -128 70 -152 87 -65 49 -129 64 -290 66 -170 2
-176 5 -170 89 4 51 2 58 -14 58 -26 0 -22 20 12 72 29 44 117 131 155 155 18
11 17 12 -11 12 -38 1 -141 -63 -177 -111 -53 -69 -71 -151 -47 -212 15 -40
-4 -31 -28 13 -27 48 -28 93 -2 149 27 60 120 154 185 187 31 15 54 29 53 31
-8 8 -98 -20 -135 -42 -82 -48 -138 -120 -162 -212 -10 -34 -16 -42 -35 -42
-34 0 -65 29 -80 75 -14 40 -46 61 -46 31 0 -9 -5 -16 -10 -16 -19 0 -95 52
-142 98 l-48 46 28 29 c43 47 103 87 129 87 12 0 23 -4 23 -10 0 -18 54 -11
140 19 85 29 146 39 136 22z m424 -50 c0 -13 -27 -21 -45 -15 -8 4 -12 10 -9
15 7 12 54 12 54 0z m508 -40 c63 -17 204 -80 227 -100 11 -10 45 -32 76 -49
30 -17 68 -43 83 -57 53 -49 16 -38 -76 23 -84 55 -267 142 -299 142 -7 0 -25
12 -40 26 -29 28 -49 25 -49 -7 0 -12 -4 -17 -11 -14 -6 4 -8 13 -5 21 3 7 1
16 -4 19 -6 4 -10 10 -10 15 0 8 27 3 108 -19z m-1375 -179 c51 -42 118 -95
151 -117 44 -30 94 -84 201 -219 131 -165 154 -200 275 -423 89 -165 145 -280
171 -356 22 -62 46 -125 55 -140 28 -51 95 -309 97 -377 2 -61 1 -65 -25 -78
-16 -7 -28 -17 -28 -23 0 -22 -31 -6 -64 34 -19 23 -156 285 -305 582 -289
579 -373 734 -441 815 -43 51 -80 80 -80 61 0 -5 25 -46 55 -90 65 -94 150
-254 254 -471 40 -85 95 -192 122 -237 28 -45 63 -114 79 -154 35 -84 150
-304 192 -368 40 -60 35 -76 -24 -75 -61 0 -118 38 -154 101 -74 134 -163 250
-300 394 -81 85 -167 181 -192 214 -127 169 -198 435 -209 793 -5 156 -4 174
12 192 32 35 60 25 158 -58z m1502 57 c25 -12 45 -25 45 -30 0 -8 -94 31 -107
45 -13 13 19 5 62 -15z m-4268 -6 c3 -7 -13 -23 -35 -37 -55 -34 -160 -133
-167 -157 -12 -36 2 -31 59 20 55 50 58 51 119 51 56 0 66 4 106 35 50 40 83
44 126 15 37 -24 91 -26 103 -4 15 27 89 12 194 -39 95 -47 218 -129 218 -147
0 -13 -2 -13 -65 5 -39 12 -59 13 -80 5 -17 -6 -62 -8 -116 -4 -61 5 -89 3
-89 -4 0 -6 21 -14 48 -17 146 -20 350 -88 445 -147 37 -24 46 -35 42 -49 -8
-23 4 -28 159 -70 162 -44 206 -59 206 -71 0 -16 -170 -1 -255 22 -38 10 -108
24 -155 30 -47 6 -121 20 -164 31 -107 26 -179 34 -202 21 -21 -12 -46 -4 258
-76 109 -26 246 -53 305 -61 60 -8 162 -21 228 -30 309 -41 815 -162 815 -195
0 -16 -121 -24 -385 -25 -301 -2 -295 -2 -295 -14 0 -5 49 -46 109 -90 60 -45
112 -89 115 -97 4 -10 -7 -27 -30 -48 l-36 -33 49 -17 c82 -31 183 -79 183
-87 0 -10 -24 -16 -102 -24 -32 -4 -60 -10 -63 -15 -3 -5 41 -23 97 -40 57
-18 129 -48 162 -69 110 -68 258 -193 244 -206 -4 -5 -38 16 -142 90 -52 37
-89 48 -65 19 7 -8 29 -24 48 -34 62 -31 129 -115 188 -235 29 -58 48 -115 39
-115 -3 0 -25 30 -49 68 -46 70 -73 99 -84 88 -7 -7 49 -137 130 -304 45 -92
51 -113 55 -184 4 -68 1 -87 -18 -129 -19 -39 -21 -52 -11 -62 30 -29 81 82
81 177 0 18 -5 57 -10 86 -6 29 -8 56 -5 59 3 3 20 -9 37 -26 32 -33 46 -83
47 -170 1 -24 5 -43 11 -43 21 0 33 83 20 147 -20 105 9 121 51 28 48 -104 -4
-212 -129 -267 -26 -12 -86 -24 -145 -29 -75 -7 -118 -17 -171 -40 -185 -80
-221 -86 -331 -55 -76 22 -113 45 -94 57 19 12 119 11 119 -1 0 -13 90 -13
145 1 44 11 84 42 68 52 -5 3 -29 -4 -53 -15 -125 -57 -196 5 -115 99 65 77
90 162 65 227 -11 30 -65 66 -98 66 -13 0 -36 7 -51 16 -25 15 -30 15 -59 0
-18 -9 -32 -20 -32 -24 0 -17 31 -50 72 -77 55 -37 68 -53 68 -83 0 -24 1 -24
20 -7 13 12 20 33 22 69 l3 51 18 -27 c32 -47 16 -82 -80 -175 -82 -80 -87
-83 -132 -83 -25 0 -64 5 -86 10 -53 12 -70 -1 -50 -39 23 -46 136 -143 195
-168 84 -36 105 -49 103 -61 -1 -5 11 -15 27 -21 37 -13 39 -39 9 -148 -45
-161 -22 -323 57 -420 l37 -45 -17 -130 c-18 -128 -16 -193 7 -247 6 -14 37
-72 70 -129 71 -124 120 -238 149 -346 17 -63 22 -111 22 -221 1 -114 4 -141
16 -147 59 -27 177 32 300 149 144 137 217 244 239 354 21 100 137 249 194
249 15 0 18 -5 13 -27 -3 -16 -17 -103 -30 -194 -44 -295 -86 -419 -181 -526
-25 -28 -45 -56 -45 -63 0 -19 90 -52 156 -58 118 -9 220 30 330 128 74 65 94
73 94 36 0 -13 7 -43 15 -67 15 -42 15 -47 -20 -164 -20 -66 -45 -142 -57
-170 -41 -98 -34 -174 25 -261 34 -51 88 -94 118 -94 10 0 44 26 76 58 74 74
135 116 221 151 38 15 85 40 105 55 77 59 126 172 113 264 -14 107 -140 265
-235 297 -79 26 -214 160 -181 180 25 16 90 -17 131 -65 30 -35 50 -50 67 -50
27 0 27 -2 -3 100 -28 95 -3 250 40 250 9 0 24 -5 34 -12 15 -9 25 -9 45 0 20
9 46 9 102 1 41 -5 84 -7 95 -4 18 6 14 11 -32 43 -145 97 -347 96 -411 -2
-13 -20 -27 -36 -32 -36 -4 0 -6 27 -4 59 7 104 70 168 183 186 37 6 38 8 20
21 -27 20 -44 18 -113 -17 -72 -36 -103 -70 -157 -176 -36 -71 -40 -86 -43
-169 -5 -116 16 -206 58 -249 17 -17 30 -34 30 -38 0 -14 -82 -7 -117 10 -19
9 -46 32 -59 52 -26 40 -74 172 -74 205 0 41 62 206 99 263 97 150 280 254
446 253 83 -1 115 -15 233 -104 107 -82 124 -103 157 -206 10 -30 41 -109 70
-175 29 -66 59 -143 69 -171 25 -77 66 -320 66 -394 0 -127 -56 -274 -158
-409 -68 -92 -420 -452 -520 -532 -120 -96 -158 -105 -268 -64 -36 14 -79 25
-95 25 -21 0 -32 7 -43 28 l-15 27 -1 -41 c0 -58 -18 -104 -40 -104 -25 0 -50
58 -65 149 -10 65 -13 72 -20 47 -4 -15 -5 -66 -2 -112 2 -46 3 -84 0 -84 -9
0 -31 67 -44 135 l-14 70 -5 -105 c-5 -98 -6 -103 -20 -80 -35 60 -21 363 22
480 28 77 48 160 38 160 -9 0 -53 -130 -80 -230 -12 -44 -26 -70 -39 -70 -4 0
-29 38 -56 85 -27 47 -52 85 -57 85 -10 0 24 -85 73 -183 39 -78 50 -122 27
-115 -7 2 -41 51 -75 107 -111 186 -110 156 1 -98 40 -91 85 -199 100 -239 35
-97 43 -111 71 -122 49 -19 122 -212 155 -410 17 -100 19 -129 9 -152 -6 -15
-15 -28 -20 -28 -9 0 -11 8 -29 120 -29 174 -88 370 -112 370 -6 0 -8 -7 -4
-15 3 -8 19 -85 36 -172 36 -184 38 -278 5 -278 -16 0 -21 -9 -27 -50 -3 -27
-7 -75 -7 -104 -2 -88 -17 -49 -40 99 -25 162 -53 290 -58 273 -3 -7 5 -60 16
-119 34 -173 22 -381 -25 -436 -13 -16 -24 -35 -25 -41 0 -7 -5 -1 -10 12 -5
13 -12 77 -16 143 -3 65 -10 121 -15 124 -4 3 -8 -43 -8 -103 0 -108 -8 -142
-29 -129 -7 5 -11 -5 -11 -29 0 -22 4 -34 10 -30 6 3 10 -1 10 -9 0 -8 -8 -19
-17 -24 -9 -6 -19 -28 -22 -53 -7 -48 -23 -60 -38 -27 -10 22 -11 21 -23 -19
-14 -46 -30 -57 -30 -20 0 25 -16 54 -25 45 -3 -3 -8 -32 -11 -64 -16 -181
-32 -123 -44 153 -5 125 -14 256 -21 290 -10 58 -31 104 -42 93 -3 -3 4 -68
15 -145 15 -98 21 -195 22 -325 1 -192 -9 -260 -40 -260 -12 0 -14 13 -7 78 9
87 8 148 -3 272 l-8 85 -12 -178 c-12 -166 -33 -279 -55 -293 -5 -3 -9 17 -9
45 0 27 -4 52 -8 55 -4 2 -16 -19 -26 -47 -22 -63 -33 -77 -57 -77 -11 0 -29
-17 -44 -40 -14 -22 -31 -40 -39 -40 -7 0 -21 -9 -31 -20 -23 -25 -35 -17 -35
23 l0 32 -25 -30 c-21 -25 -26 -28 -35 -15 -5 8 -10 26 -10 40 -1 17 -9 4 -26
-40 -14 -36 -33 -76 -44 -90 l-20 -25 0 25 c0 14 7 52 14 85 8 33 18 88 22
123 10 90 -11 80 -31 -16 -36 -166 -81 -289 -100 -270 -4 3 0 44 9 90 8 45 20
119 25 163 6 44 14 98 17 120 3 25 2 36 -4 30 -6 -5 -22 -84 -37 -175 -29
-178 -45 -230 -69 -230 -12 0 -16 10 -16 38 -1 37 -1 36 -35 -33 -29 -62 -33
-66 -34 -39 -1 17 4 56 10 88 6 32 8 60 5 63 -6 6 -39 -64 -65 -141 -22 -64
-41 -71 -41 -17 0 49 -13 53 -30 8 -27 -73 -44 -108 -57 -118 -19 -16 -17 -7
21 116 42 137 83 365 61 343 -3 -2 -23 -74 -44 -159 -60 -239 -108 -339 -161
-339 -24 0 -27 25 -4 34 9 4 12 11 7 18 -4 7 -6 21 -5 31 5 31 -17 18 -26 -15
-4 -17 -14 -34 -22 -36 -13 -5 -12 36 6 213 9 82 -11 62 -25 -25 -13 -81 -44
-173 -59 -178 -16 -5 -15 17 7 139 11 57 22 139 26 182 11 112 -10 98 -30 -20
-46 -272 -85 -428 -116 -457 -13 -12 -12 -8 15 163 9 57 15 105 13 107 -2 3
-18 -35 -36 -83 -17 -49 -35 -95 -41 -103 -19 -31 -23 3 -7 73 32 135 47 333
31 394 -12 44 -24 10 -24 -67 0 -135 -64 -408 -105 -449 -13 -14 -15 -13 -15
4 0 11 7 45 15 75 8 30 22 96 30 145 17 101 20 265 6 249 -5 -5 -19 -75 -30
-156 -21 -146 -38 -212 -67 -256 -25 -39 -32 -16 -18 65 22 121 29 239 15 247
-6 4 -11 6 -11 4 0 -26 -34 -179 -50 -228 -26 -77 -45 -110 -65 -110 -19 0
-20 -9 10 90 25 83 35 210 16 210 -12 0 -19 -21 -31 -96 -12 -74 -35 -148 -57
-183 -28 -44 -33 -8 -13 97 22 114 25 161 10 146 -5 -5 -14 -42 -20 -81 -12
-84 -39 -164 -59 -171 -12 -4 -13 12 -8 97 3 55 3 101 -1 101 -4 0 -16 -33
-26 -72 -10 -40 -24 -84 -31 -98 l-13 -25 -6 25 c-3 14 -7 66 -9 115 l-2 90
-22 -70 c-13 -38 -27 -77 -32 -85 -17 -25 -24 15 -17 90 6 69 -8 108 -19 53
-28 -135 -55 -161 -55 -52 0 79 -7 80 -34 6 -10 -26 -22 -45 -27 -41 -5 3 -9
39 -9 80 0 44 -4 74 -10 74 -6 0 -13 -6 -15 -12 -30 -86 -48 -128 -56 -128 -5
0 -9 27 -9 59 0 68 -12 85 -29 41 -6 -17 -16 -43 -22 -60 -16 -41 -29 -28 -29
28 0 60 -10 122 -20 122 -4 0 -10 -25 -14 -56 -8 -66 -31 -128 -46 -119 -6 3
-10 46 -10 96 0 49 -4 89 -9 89 -8 0 -15 -25 -38 -145 -16 -86 -46 -87 -37 -1
8 77 -9 99 -26 34 -19 -74 -40 -125 -60 -143 -28 -25 -33 -15 -15 28 8 20 17
69 20 109 l5 73 -29 -81 c-50 -142 -75 -174 -132 -174 -78 0 -84 14 -37 89 17
28 28 54 24 58 -4 4 -33 -22 -65 -58 -64 -69 -89 -75 -46 -10 40 60 27 72 -26
24 l-44 -41 -24 19 c-13 10 -29 19 -37 19 -20 0 -17 16 8 50 30 41 16 48 -31
17 -46 -30 -58 -25 -31 13 25 35 25 40 -1 40 -16 0 -19 4 -14 18 4 9 10 28 12
42 5 25 5 25 -19 -4 -17 -21 -27 -26 -32 -17 -4 6 -3 17 2 24 6 7 15 53 21
104 16 145 54 202 220 325 101 75 191 156 191 172 0 5 -8 2 -18 -7 -19 -17
-42 -23 -42 -11 0 4 20 32 45 62 44 53 51 72 29 79 -6 2 -40 -26 -77 -61 -63
-61 -101 -85 -114 -72 -3 3 0 12 7 21 11 13 7 15 -34 15 -49 0 -61 15 -31 40
26 21 17 31 -14 16 -26 -14 -30 -14 -41 -1 -7 8 -21 15 -31 15 -27 0 -23 17
13 59 29 33 30 36 12 39 -10 2 -23 8 -29 13 -5 5 -22 9 -37 9 -35 0 -35 10 -3
49 63 74 113 181 86 181 -5 0 -45 -25 -91 -56 -101 -69 -178 -104 -230 -104
-44 0 -50 12 -24 49 13 18 22 22 48 17 45 -9 66 11 80 75 23 100 104 126 284
90 57 -12 114 -21 128 -21 13 0 47 -12 75 -26 27 -15 53 -23 57 -19 4 4 2 10
-5 12 -24 8 -77 48 -81 61 -6 20 32 14 104 -18 37 -17 69 -28 72 -25 8 7 -28
44 -50 51 -15 4 -17 9 -7 20 6 8 18 14 25 14 20 0 22 65 3 85 -15 15 -10 35 8
35 29 0 -10 33 -77 65 l-60 29 -84 -22 c-133 -35 -182 -27 -291 48 -97 67
-150 84 -265 84 -58 0 -138 -4 -177 -8 -90 -11 -103 -3 -103 63 0 50 19 125
81 321 49 156 64 182 116 198 96 29 186 153 186 258 0 47 -5 62 -39 111 -88
128 -127 163 -179 163 l-30 -1 30 -22 c73 -53 85 -71 85 -134 0 -69 -26 -119
-66 -129 -14 -4 -65 -3 -113 2 -198 20 -270 7 -465 -83 -65 -30 -144 -59 -176
-65 -51 -10 -62 -9 -91 8 -93 54 -77 214 66 669 36 116 86 284 110 375 43 161
78 269 108 340 51 118 324 546 385 604 27 25 34 27 47 16 34 -29 37 -48 19
-140 -17 -89 -16 -111 11 -210 6 -22 4 -21 -15 8 -26 38 -56 44 -46 10 19 -69
19 -68 -3 -68 -14 0 -21 -6 -21 -20 0 -18 168 -357 193 -388 24 -30 16 3 -22
92 -23 53 -41 108 -41 122 0 25 1 26 18 11 10 -9 37 -53 61 -97 24 -45 45 -80
47 -77 2 2 -12 50 -31 107 -39 117 -40 120 -22 120 7 0 37 -50 67 -111 80
-163 88 -155 28 29 -16 51 -28 96 -25 98 3 3 24 -32 48 -77 24 -45 45 -77 47
-70 2 6 -4 43 -13 82 -10 38 -15 73 -11 76 3 3 24 -32 46 -78 48 -99 54 -106
74 -89 9 7 23 10 31 6 8 -3 15 0 15 7 0 23 -58 105 -79 112 -12 3 -21 12 -21
19 0 7 -15 33 -34 57 -19 24 -37 58 -41 74 l-6 30 23 -27 c13 -15 30 -36 38
-48 8 -11 42 -31 75 -44 41 -17 67 -35 83 -58 52 -76 87 -89 64 -25 -15 41
-16 70 -2 62 6 -3 14 5 20 19 13 34 30 33 30 -1 0 -16 12 -52 25 -82 l26 -54
-21 -98 c-11 -54 -20 -114 -20 -134 0 -40 15 -75 32 -75 5 0 26 -14 45 -30
l34 -31 137 3 c170 4 175 13 49 79 -49 25 -102 58 -118 73 -62 59 -26 131 105
210 39 23 91 54 116 70 25 15 86 51 135 79 87 50 93 51 170 52 44 0 97 7 119
14 24 8 56 11 86 7 33 -4 62 -1 92 9 24 9 77 28 118 42 41 14 83 32 92 40 12
11 28 13 55 8 21 -4 63 -7 93 -6 30 0 77 -6 103 -15 64 -21 163 -22 184 -2 13
14 11 20 -21 56 -42 46 -103 79 -118 64 -9 -9 9 -27 58 -59 17 -10 17 -13 4
-23 -17 -12 -74 -5 -134 16 -48 17 -103 18 -110 2 -3 -9 -10 -7 -24 8 -17 20
-20 20 -29 6 -9 -15 -23 -11 -129 32 -99 41 -131 49 -189 50 -69 2 -133 25
-176 63 -9 7 -52 22 -95 33 -44 10 -139 40 -213 65 -121 42 -137 46 -175 37
-44 -11 -120 -2 -138 16 -8 8 -6 13 8 17 10 3 42 15 69 27 28 11 82 29 120 40
84 24 124 20 254 -22 99 -32 144 -39 123 -18 -18 18 -15 28 10 28 21 0 219
-100 249 -126 8 -8 22 -14 30 -14 8 0 33 -13 55 -30 52 -38 186 -95 282 -120
90 -24 112 -25 112 -6 0 34 -62 81 -253 190 -553 316 -822 371 -1287 266 -222
-50 -428 -68 -486 -41 -77 36 -69 154 22 346 31 65 59 137 62 159 2 23 16 60
29 84 15 25 28 69 33 107 8 67 50 155 73 155 11 0 47 -72 47 -93 0 -5 -20 -32
-45 -60 -50 -57 -93 -132 -82 -143 11 -11 65 45 103 108 26 42 46 62 79 78 67
33 180 143 221 216 19 35 32 69 29 75 -10 15 -41 -33 -61 -93 -8 -27 -25 -55
-37 -63 -24 -17 -73 -20 -82 -5 -3 6 -17 7 -30 4 -33 -8 -40 22 -32 145 13
199 90 499 168 656 66 135 63 195 -11 195 -20 0 -46 15 -87 50 -57 49 -73 58
-73 41 0 -12 44 -75 71 -102 15 -15 19 -24 11 -27 -17 -5 -62 25 -62 42 0 7
-8 21 -19 30 -24 22 -50 115 -59 212 -4 46 -12 79 -19 81 -7 3 -22 -15 -35
-39 -19 -35 -23 -59 -23 -128 0 -89 13 -128 58 -177 11 -13 17 -26 13 -30 -10
-10 -41 29 -74 92 -36 69 -36 166 0 245 26 59 77 110 108 110 23 0 43 62 34
107 -9 43 23 146 66 211 45 70 122 142 151 142 21 0 21 -2 15 -97 -6 -76 -4
-102 7 -117 13 -18 15 -17 35 12 24 33 28 58 11 64 -14 5 5 208 25 265 15 43
62 81 141 112 54 22 106 24 112 4z m4018 -23 c19 -8 19 -9 -2 -9 -12 -1 -25 4
-28 9 -7 12 2 12 30 0z m-3994 -50 c-24 -21 -41 -26 -41 -12 0 15 24 32 45 32
19 -1 19 -1 -4 -20z m4134 -25 c30 -19 55 -37 55 -40 0 -9 -96 43 -109 59 -21
25 -5 19 54 -19z m531 -129 c101 -104 123 -143 105 -182 -16 -35 -41 -27 -68
21 -17 29 -22 49 -18 73 6 30 0 39 -66 108 -40 40 -66 74 -58 74 8 0 55 -42
105 -94z m-491 14 c12 0 34 -13 50 -30 l29 -30 -43 0 c-34 0 -49 6 -72 29 -16
16 -29 37 -29 46 0 15 2 15 22 1 12 -9 32 -16 43 -16z m-3415 -41 c0 -5 -7 -9
-15 -9 -15 0 -20 12 -9 23 8 8 24 -1 24 -14z m78 -35 c20 -9 32 -18 25 -21
-11 -4 -73 23 -73 32 0 8 9 6 48 -11z m3462 -34 c25 -19 24 -35 -1 -25 -16 6
-43 45 -32 45 5 0 19 -9 33 -20z m-3355 -30 c10 -11 14 -20 8 -20 -5 0 -18 9
-28 20 -10 11 -14 20 -8 20 5 0 18 -9 28 -20z m2247 -27 c20 -21 54 -67 76
-103 26 -43 46 -65 58 -65 13 0 19 7 19 21 1 34 21 51 93 79 l67 26 89 -26
c116 -34 248 -102 317 -165 30 -27 49 -49 43 -50 -6 0 -19 9 -29 20 -10 11
-26 20 -35 20 -9 0 -59 25 -111 56 -98 59 -219 114 -249 114 -26 0 -110 -50
-110 -65 0 -9 28 -14 108 -16 97 -4 114 -7 172 -36 185 -91 312 -294 350 -556
11 -75 4 -150 -14 -144 -6 2 -18 26 -28 53 -18 55 -40 66 -69 35 -11 -12 -23
-21 -27 -21 -13 0 -32 23 -32 39 0 19 -49 91 -62 91 -6 0 -7 -17 -3 -40 9 -53
-5 -51 -52 5 -48 58 -62 58 -28 0 46 -79 22 -72 -70 20 -108 109 -149 166
-181 253 -14 37 -40 99 -58 137 -18 39 -37 81 -43 94 -8 22 -10 22 -25 7 -24
-23 -31 -21 -77 29 -66 71 -157 225 -133 225 4 0 24 -17 44 -37z m379 23 c70
-15 159 -52 159 -67 0 -16 -49 -10 -168 22 -90 23 -129 29 -169 25 -53 -6 -76
9 -30 18 12 3 31 7 42 9 41 9 102 6 166 -7z m-266 -47 c9 -17 14 -34 10 -37
-8 -8 -44 38 -45 56 0 23 19 12 35 -19z m-2257 -4 c20 -14 47 -25 59 -25 18 0
23 -6 23 -25 0 -16 9 -29 28 -39 l27 -15 -28 -1 c-56 0 -157 74 -157 116 0 19
5 18 48 -11z m3947 1 c58 -27 88 -57 83 -83 -4 -23 -59 -29 -90 -10 -13 8 -45
18 -73 22 -75 10 -95 37 -58 77 22 25 77 23 138 -6z m-3751 -62 c17 -6 22 -24
8 -24 -5 0 -17 7 -28 15 -19 15 -8 20 20 9z m2626 -22 l25 -17 -30 -3 c-37 -4
-108 25 -99 39 8 14 72 2 104 -19z m800 -4 c11 -18 20 -42 20 -53 -1 -15 -6
-10 -20 17 -11 20 -24 40 -30 43 -13 8 -13 25 0 25 6 0 19 -15 30 -32z m549
-26 c24 -14 39 -28 32 -30 -7 -2 -20 3 -30 12 -10 10 -35 21 -55 27 -20 5 -36
15 -36 20 0 14 35 2 89 -29z m-3733 -31 c87 -28 170 -58 184 -66 l25 -14 -24
-1 c-38 0 -232 60 -291 91 -30 16 -61 29 -67 29 -7 0 -13 5 -13 11 0 6 6 9 13
6 8 -3 85 -28 173 -56z m3176 -155 c17 -66 25 -196 12 -209 -3 -3 -12 -3 -20
0 -11 4 -14 28 -14 99 0 72 -6 111 -25 171 -14 43 -25 85 -24 93 0 28 52 -85
71 -154z m-3165 93 c84 -24 153 -47 153 -51 0 -14 -76 -8 -153 11 -84 22 -187
67 -187 82 0 12 -8 14 187 -42z m3602 31 c-27 -16 -131 -40 -171 -40 -46 0
-52 23 -10 38 36 14 203 15 181 2z m201 -80 c11 -7 8 -10 -15 -9 -16 0 -39 4
-50 9 -16 7 -14 9 15 9 19 0 42 -4 50 -9z m-717 -102 c3 -21 2 -38 -2 -38 -9
0 -21 61 -20 100 l1 25 7 -25 c4 -14 10 -42 14 -62z m-484 24 c24 -18 90 -192
91 -239 0 -58 -43 11 -70 112 -10 36 -28 63 -67 103 -29 30 -53 58 -53 63 0
11 66 -15 99 -39z m1331 38 c12 -8 9 -10 -12 -10 -15 0 -30 5 -33 10 -8 13 25
13 45 0z m-498 -10 c43 -12 74 -38 60 -52 -16 -16 -192 33 -192 54 0 11 87 10
132 -2z m294 -79 c102 -89 196 -201 266 -318 43 -71 94 -183 83 -183 -2 0 -23
36 -46 80 -23 44 -51 92 -62 106 -19 25 -21 25 -33 9 -17 -23 -24 -17 -96 78
-110 145 -184 205 -271 221 -50 9 -58 32 -23 63 49 42 81 33 182 -56z m262
-30 c6 -18 -92 35 -115 62 -13 15 -2 12 46 -14 36 -19 67 -41 69 -48z m-6168
-112 c0 -37 -4 -58 -10 -54 -18 11 -12 115 7 115 2 0 3 -27 3 -61z m2420 -48
c140 -39 238 -58 398 -76 209 -24 402 -78 552 -156 53 -28 103 -66 171 -132
121 -117 148 -169 160 -300 4 -51 11 -111 14 -134 6 -40 4 -43 -27 -59 -18 -9
-40 -25 -48 -35 -22 -27 -142 -37 -207 -17 -26 9 -61 19 -78 22 -47 11 -217
86 -251 112 -17 13 -50 31 -74 39 -85 30 -239 172 -490 450 -74 82 -165 183
-202 224 -38 41 -68 78 -68 83 0 14 43 9 150 -21z m2350 -31 c4 -26 0 -40 -10
-40 -5 0 -10 17 -10 37 0 35 16 38 20 3z m770 -49 c21 -43 41 -111 32 -111
-12 1 -73 112 -79 144 -6 29 -5 30 11 17 10 -8 26 -31 36 -50z m653 -236 c49
-128 81 -275 57 -260 -5 3 -10 15 -10 26 0 24 -64 223 -96 301 -29 69 -30 81
-4 48 10 -14 35 -65 53 -115z m-1663 -16 c38 -33 91 -75 119 -92 27 -18 96
-74 153 -125 57 -51 133 -113 169 -137 132 -87 284 -225 333 -304 40 -63 63
-135 81 -263 9 -62 30 -165 47 -228 56 -212 60 -242 62 -380 1 -127 -1 -138
-26 -190 -31 -65 -52 -135 -72 -247 -19 -101 -46 -157 -87 -178 -35 -19 -57
-14 -100 22 -26 22 -34 24 -55 14 -14 -6 -34 -11 -44 -11 -24 0 -26 -13 -5
-30 13 -11 22 -50 10 -50 -2 0 -68 9 -147 21 -192 27 -378 64 -455 90 -72 24
-124 61 -108 78 7 7 35 1 90 -21 74 -30 89 -32 200 -32 145 -1 354 14 361 26
9 14 41 9 48 -7 3 -8 14 -15 25 -15 24 0 25 -10 -26 221 -52 240 -71 293 -161
441 -90 150 -144 255 -178 344 -46 123 -105 417 -120 599 -8 99 -30 151 -118
272 -50 70 -69 105 -76 144 -13 67 -13 99 1 99 6 0 41 -27 79 -61z m1074 -247
c-4 -18 -10 -32 -15 -32 -10 0 -12 41 -3 65 11 27 25 1 18 -33z m-1154 -69
c12 -50 20 -98 18 -105 -5 -13 -48 156 -48 187 0 32 7 12 30 -82z m1527 -75
c-3 -7 -5 -2 -5 12 0 14 2 19 5 13 2 -7 2 -19 0 -25z m-3049 -32 c10 -14 27
-51 36 -83 14 -48 43 -139 72 -225 4 -10 1 -18 -5 -18 -16 0 -56 86 -84 181
-13 46 -32 101 -41 123 -19 45 -19 46 -7 46 5 0 18 -11 29 -24z m1172 -46 c8
-5 12 -11 9 -14 -3 -3 -14 1 -25 9 -21 16 -8 20 16 5z m87 -163 c13 -11 43
-59 68 -106 25 -47 59 -110 75 -140 37 -67 26 -91 -20 -46 -28 27 -30 28 -49
11 -16 -15 -32 -17 -103 -11 -77 6 -81 5 -58 -9 33 -20 77 -32 186 -51 111
-20 161 -34 175 -52 14 -17 23 -17 -148 12 -114 20 -163 33 -227 63 -83 39
-136 87 -136 122 0 32 -56 85 -130 124 -69 36 -87 56 -52 56 35 -1 108 -42
148 -85 39 -43 137 -115 155 -115 36 0 -45 90 -155 171 -136 100 -146 109
-146 124 0 19 29 19 54 0 11 -8 27 -15 36 -15 9 0 31 -13 50 -30 19 -16 43
-29 52 -30 9 0 44 -35 77 -78 32 -43 75 -92 94 -109 32 -28 102 -52 114 -39 7
7 -108 133 -246 271 -61 60 -111 113 -111 118 0 11 269 -130 297 -156z m323
108 c14 -41 7 -72 -7 -35 -20 50 -24 70 -14 70 5 0 15 -16 21 -35z m-1480 4
c10 -18 60 -158 77 -214 6 -18 5 -18 -10 -6 -28 22 -97 170 -97 207 0 38 14
44 30 13z m112 -69 c26 -53 27 -54 27 -23 2 68 41 50 67 -30 24 -74 37 -83 31
-22 -2 28 -8 58 -12 69 -6 14 -4 17 11 15 14 -3 28 -31 56 -116 23 -74 49
-130 73 -163 67 -92 97 -212 59 -242 -9 -7 -42 -38 -73 -69 -66 -66 -99 -82
-244 -115 -204 -46 -338 -108 -432 -200 -88 -85 -106 -168 -54 -247 l31 -47
-19 -31 c-10 -18 -30 -41 -45 -52 -88 -66 -150 91 -114 287 42 222 85 260 372
335 83 22 172 49 196 61 95 44 138 120 138 241 0 69 -11 101 -50 146 -21 23
-30 44 -30 68 0 19 -11 64 -25 101 -30 79 -31 97 -8 92 10 -2 30 -28 45 -58z
m242 -99 c18 -62 20 -91 6 -91 -12 0 -40 94 -40 134 0 41 15 23 34 -43z m281
39 c-3 -5 -13 -10 -21 -10 -8 0 -14 5 -14 10 0 6 9 10 21 10 11 0 17 -4 14
-10z m-196 -97 c22 -64 27 -113 13 -113 -9 0 -72 149 -72 172 0 8 3 18 7 22
12 12 31 -17 52 -81z m2159 53 c15 -8 36 -24 47 -36 l20 -23 -40 21 c-52 27
-84 51 -67 52 7 0 25 -6 40 -14z m606 8 c17 -6 22 -24 8 -24 -5 0 -17 7 -28
15 -19 15 -8 20 20 9z m-118 -28 c10 -8 16 -17 12 -21 -7 -7 -48 16 -48 27 0
12 14 9 36 -6z m-2442 -20 c28 -13 71 -31 96 -40 59 -21 150 -74 150 -87 0
-19 -62 2 -173 59 -135 70 -196 126 -73 68z m30 -81 c188 -91 218 -117 295
-266 107 -205 186 -307 267 -341 86 -37 176 -72 305 -118 161 -57 219 -86 278
-137 38 -34 44 -45 48 -89 7 -68 -12 -89 -76 -81 -86 11 -375 108 -498 167
-175 84 -288 164 -428 305 -165 164 -262 310 -345 520 -33 82 -37 115 -17 115
8 0 85 -34 171 -75z m696 12 c0 -18 -2 -19 -10 -7 -13 20 -13 43 0 35 6 -3 10
-16 10 -28z m1198 -39 c22 -18 49 -53 61 -78 32 -69 81 -203 76 -208 -4 -4
-31 36 -88 132 -35 60 -49 52 -32 -20 l13 -55 -24 22 c-23 22 -24 22 -24 2 0
-11 14 -59 30 -106 17 -48 30 -95 29 -104 -1 -26 -44 68 -76 163 -25 77 -26
84 -11 114 15 32 14 65 -3 76 -5 3 -9 -1 -9 -8 0 -9 -3 -9 -10 2 -5 8 -10 34
-10 58 0 53 21 56 78 10z m703 -5 c6 -16 6 -30 1 -35 -6 -6 -14 2 -20 20 -9
26 -7 42 5 42 2 0 8 -12 14 -27z m-561 -75 c0 -21 -5 -38 -10 -38 -17 0 -23
27 -15 67 8 46 25 27 25 -29z m431 16 c16 -43 32 -171 25 -200 -12 -45 -23
-14 -35 92 -6 56 -13 109 -17 118 -3 9 -1 16 5 16 6 0 16 -12 22 -26z m90
-235 c-7 -18 -10 -1 -10 71 -1 131 13 172 17 49 1 -52 -2 -106 -7 -120z m638
102 c6 -30 9 -56 6 -59 -2 -3 -6 1 -9 9 -2 8 -9 29 -15 48 -6 19 -11 43 -11
54 0 36 17 5 29 -52z m-562 22 c-3 -10 -5 -4 -5 12 0 17 2 24 5 18 2 -7 2 -21
0 -30z m-490 -4 c7 -13 13 -39 13 -57 0 -19 7 -49 15 -66 15 -31 14 -37 -5
-88 -11 -30 -27 -63 -35 -74 -13 -17 -14 -6 -13 106 1 69 -2 145 -6 169 -7 34
-5 42 5 39 8 -3 20 -15 26 -29z m117 -14 c29 -27 35 -77 15 -134 -16 -45 -24
-38 -21 18 3 41 -1 56 -22 84 -44 57 -24 80 28 32z m-1737 -36 c15 -6 38 -19
49 -30 13 -12 56 -28 106 -39 146 -32 247 -76 299 -131 60 -62 116 -170 125
-238 7 -54 7 -54 -17 -47 -13 5 -49 11 -80 16 -63 8 -78 15 -133 59 -23 19
-50 31 -68 31 -32 0 -78 21 -97 44 -8 9 -28 16 -45 16 -36 0 -133 54 -184 103
-18 17 -51 69 -73 114 -33 68 -39 86 -29 98 15 18 105 20 147 4z m2780 -91
c-3 -8 -6 -5 -6 6 -1 11 2 17 5 13 3 -3 4 -12 1 -19z m-67 -35 c0 -32 -5 -28
-14 10 -4 19 -3 26 4 22 5 -3 10 -18 10 -32z m-7215 -102 c-16 -50 -35 -75
-35 -48 0 19 21 79 33 95 18 23 19 4 2 -47z m7333 -141 c1 -34 -2 -40 -8 -25
-5 11 -8 43 -8 70 0 39 2 45 8 25 4 -14 8 -45 8 -70z m-3475 -87 c90 -43 151
-88 181 -134 14 -21 48 -61 76 -90 59 -61 86 -134 76 -207 -15 -111 -125 -241
-258 -306 -40 -20 -129 -50 -198 -67 -137 -34 -166 -48 -225 -108 -64 -67 -75
-54 -75 91 0 162 33 245 104 263 33 8 51 5 120 -20 148 -53 281 -32 361 57 44
48 55 76 55 134 0 60 -26 108 -93 171 -224 212 -519 248 -817 98 -119 -60
-144 -56 -65 9 135 110 266 146 525 143 163 -2 166 -2 233 -34z m2546 -5 c-23
-6 -48 -6 -70 0 -30 9 -26 10 36 10 63 0 67 -1 34 -10z m-2780 -83 c75 -20
151 -60 208 -111 46 -42 47 -43 21 -44 -42 0 -73 16 -124 64 -64 62 -177 96
-222 67 -17 -10 -6 -19 64 -54 73 -37 104 -77 104 -136 0 -85 -49 -121 -166
-121 -37 0 -95 -5 -129 -11 -63 -11 -228 -86 -229 -104 -1 -5 15 -9 35 -7 21
2 39 0 42 -5 3 -4 -7 -35 -21 -68 -22 -52 -26 -74 -25 -163 0 -70 -4 -101 -11
-99 -16 5 -19 161 -5 230 13 64 10 74 -19 58 -32 -17 -47 -69 -47 -166 0 -76
5 -100 28 -153 36 -83 29 -103 -11 -32 -34 59 -47 111 -57 228 -4 39 -11 72
-15 72 -5 0 -12 -26 -16 -57 -14 -111 19 -220 114 -377 47 -78 79 -188 87
-306 6 -89 -7 -95 -20 -10 -14 92 -49 207 -86 282 -57 114 -81 120 -34 9 41
-98 66 -201 71 -296 5 -88 -3 -124 -25 -111 -6 4 -31 72 -57 152 -38 120 -44
147 -33 160 11 13 8 19 -14 37 -15 12 -40 54 -56 92 -46 114 -63 142 -87 156
-78 41 -74 235 6 303 19 15 48 26 84 30 31 4 58 12 61 17 7 11 -26 25 -77 34
-139 22 2 198 302 375 58 34 114 66 125 70 33 14 176 11 234 -5z m2797 -10
c18 -14 18 -14 -8 -15 -27 0 -43 12 -31 24 9 9 17 8 39 -9z m-119 -101 c-9
-10 -38 16 -31 28 4 6 13 4 22 -6 9 -8 13 -19 9 -22z m1030 -1 c-3 -10 -5 -4
-5 12 0 17 2 24 5 18 2 -7 2 -21 0 -30z m-6901 -108 c2 -5 -8 -19 -23 -29 -19
-14 -30 -16 -43 -9 -9 6 -28 9 -41 6 -28 -5 -63 23 -38 31 8 2 21 7 29 10 25
8 113 2 116 -9z m5949 -35 c19 -36 20 -61 1 -35 -15 23 -30 65 -22 65 3 0 12
-13 21 -30z m-6145 -24 c0 -33 -12 -39 -38 -20 -32 22 -28 44 8 44 25 0 30 -4
30 -24z m-111 -24 c6 -11 6 -24 1 -32 -7 -12 -13 -10 -34 9 -14 13 -23 28 -20
32 9 16 43 10 53 -9z m1706 -47 c47 -22 63 -34 47 -34 -24 -1 -116 42 -127 59
-10 16 5 11 80 -25z m3312 -12 c-9 -9 -19 -14 -23 -11 -10 10 6 28 24 28 15 0
15 -1 -1 -17z m-4518 -19 c58 -8 180 -31 269 -50 92 -19 193 -34 230 -34 82 0
196 -47 190 -77 -4 -23 -80 -23 -228 0 -58 9 -181 21 -275 27 -271 17 -404 49
-441 105 -15 23 -15 28 -3 36 22 14 140 11 258 -7z m301 -4 c13 -9 13 -10 0
-9 -8 0 -24 4 -35 9 l-20 9 20 0 c11 0 27 -4 35 -9z m5103 -163 c130 -160 143
-179 200 -293 95 -187 150 -362 150 -474 0 -106 -23 -360 -38 -428 -32 -135
-96 -168 -144 -74 -10 20 -33 89 -51 152 -18 63 -47 162 -65 220 -156 499
-195 676 -195 890 0 116 6 151 23 144 7 -3 60 -65 120 -137z m-1596 -3 c-3
-36 19 -41 35 -9 l14 26 19 -21 c10 -11 25 -20 34 -20 30 0 -5 -18 -89 -45
-92 -30 -155 -59 -183 -83 -9 -8 -20 -12 -24 -8 -12 11 12 41 36 44 16 3 21
10 21 33 0 22 5 29 19 29 11 0 23 -4 26 -10 14 -22 35 -7 56 40 25 55 39 64
36 24z m1830 4 c-3 -8 -6 -5 -6 6 -1 11 2 17 5 13 3 -3 4 -12 1 -19z m-1643
-29 c-7 -12 -34 -11 -34 0 0 5 3 17 7 27 6 16 7 16 19 -1 7 -10 11 -22 8 -26z
m2721 19 c-4 -13 -12 -27 -18 -33 -7 -7 -8 -4 -3 8 3 10 6 25 6 33 0 8 5 14
11 14 6 0 8 -9 4 -22z m-5755 -21 c71 -13 86 -30 30 -35 -19 -1 -45 -8 -57
-14 -22 -11 -98 -6 -111 7 -4 4 1 12 11 19 9 7 17 18 17 25 0 14 27 13 110 -2z
m3180 -13 c73 -23 110 -44 79 -44 -14 0 -160 40 -172 47 -7 4 0 23 9 23 3 0
41 -12 84 -26z m-1492 -111 c-1 -111 -2 -118 -7 -53 -3 41 -4 99 -3 128 7 95
12 54 10 -75z m1652 -2 c-1 -12 -5 -10 -20 8 -26 30 -26 49 0 26 11 -10 20
-25 20 -34z m1391 -4 c-13 -13 -15 1 -4 30 7 17 8 17 11 -1 2 -10 -1 -23 -7
-29z m-5236 -17 c7 -12 -126 -100 -153 -100 -21 0 -122 74 -122 90 0 12 43 16
167 18 56 1 104 -2 108 -8z m5937 -42 c-10 -22 -11 -21 -11 12 -1 26 2 31 11
22 8 -8 8 -17 0 -34z m-1731 -45 c284 -130 499 -417 499 -668 0 -36 -5 -59
-16 -70 -14 -14 -15 -22 -5 -54 6 -21 11 -41 11 -45 0 -18 -34 -1 -82 40 -29
25 -82 62 -118 81 -207 114 -299 188 -347 280 -44 83 -100 229 -123 319 -20
77 -20 80 6 171 4 14 69 -6 175 -54z m-2085 -168 c4 -21 3 -27 -4 -20 -6 6
-14 24 -18 40 -4 21 -3 27 4 20 6 -5 14 -23 18 -40z m319 -55 l-25 -75 5 52
c4 53 37 141 42 113 2 -8 -8 -49 -22 -90z m-205 81 c0 -17 -12 -41 -21 -41
-10 0 -12 33 -2 43 9 10 23 9 23 -2z m628 -71 c-6 -22 -14 -40 -19 -40 -12 0
-11 24 3 55 17 39 27 30 16 -15z m2782 31 c0 -11 -40 -22 -53 -14 -5 3 -3 9 4
14 18 11 49 11 49 0z m354 -57 c9 -23 7 -54 -3 -54 -9 0 -21 33 -21 58 0 17
17 15 24 -4z m-560 -29 c6 -18 -2 -45 -15 -45 -9 0 -29 33 -29 49 0 17 37 13
44 -4z m-5837 -28 c7 -5 10 -14 7 -19 -6 -10 -44 19 -44 34 0 9 14 4 37 -15z
m2593 -57 c13 -45 13 -97 1 -84 -8 8 -42 133 -41 152 1 16 31 -35 40 -68z
m1121 17 c-13 -13 -15 1 -4 30 7 17 8 17 11 -1 2 -10 -1 -23 -7 -29z m-481
-20 c0 -46 -11 -78 -24 -74 -16 5 -19 31 -6 77 12 46 30 45 30 -3z m-576 16
c14 -51 17 -83 7 -83 -9 0 -31 60 -31 88 0 18 18 15 24 -5z m3221 -55 c11 -49
-10 -55 -29 -8 -9 22 -16 48 -16 57 0 27 38 -13 45 -49z m-2130 -45 c4 -22 3
-33 -4 -33 -15 0 -31 44 -31 83 l1 32 13 -25 c8 -14 17 -40 21 -57z m-470 -45
c-13 -60 -77 -203 -103 -230 -33 -36 -40 -28 -14 14 41 66 90 174 97 211 4 20
12 37 17 37 6 0 7 -13 3 -32z m-110 -114 c-45 -94 -135 -197 -135 -155 0 5 16
28 36 52 37 44 94 148 94 171 0 8 8 25 18 38 l17 25 3 -28 c2 -16 -11 -57 -33
-103z m115 -162 c0 -15 -55 -61 -92 -76 -43 -18 -150 -21 -179 -5 -16 8 -18
13 -8 25 15 19 58 18 80 -2 15 -14 20 -14 55 1 22 9 47 18 57 20 10 2 30 13
45 24 29 22 42 26 42 13z m613 -51 c54 -60 70 -98 75 -182 4 -70 2 -77 -21
-105 l-26 -29 6 76 c7 91 -12 158 -63 225 -38 50 -40 54 -20 54 7 0 30 -18 49
-39z m2412 -88 c-15 -46 -30 -82 -32 -79 -3 2 8 48 24 102 15 54 30 90 31 80
2 -11 -8 -57 -23 -103z m-61 60 c-4 -21 -10 -45 -15 -53 -12 -22 -12 32 1 64
14 38 22 32 14 -11z m-2526 -33 c33 -20 36 -45 4 -33 -28 10 -62 35 -62 44 0
15 23 10 58 -11z m1056 -3 c28 -21 16 -41 -12 -22 -22 16 -30 35 -14 35 5 0
16 -6 26 -13z m-1104 -52 c20 -24 5 -28 -21 -6 -19 16 -20 20 -8 21 9 0 22 -7
29 -15z m1536 -79 c184 -70 214 -87 262 -141 38 -44 70 -105 53 -105 -4 0 -23
16 -42 36 -31 32 -38 35 -74 30 -32 -4 -47 0 -78 21 -41 29 -55 26 -37 -7 6
-11 10 -28 8 -37 -2 -13 -15 -6 -54 29 -28 25 -90 68 -136 96 -47 29 -91 59
-99 68 -11 14 -10 16 11 12 22 -3 25 0 22 25 -2 18 1 27 10 27 8 0 77 -24 154
-54z m-526 -15 c6 -13 6 -22 1 -26 -9 -5 -31 24 -31 39 0 14 20 4 30 -13z
m-812 -37 c6 -65 -59 -108 -196 -129 -30 -5 -57 -19 -88 -46 -25 -21 -52 -39
-60 -39 -26 0 -27 29 -3 49 l23 19 -43 21 c-45 24 -49 42 -10 51 34 8 35 34 3
64 -16 14 -25 28 -21 32 4 4 40 1 82 -6 77 -13 215 -7 244 11 9 5 27 8 41 6
20 -2 26 -8 28 -33z m782 -179 c7 -8 8 -15 2 -15 -5 0 -15 7 -22 15 -7 8 -8
15 -2 15 5 0 15 -7 22 -15z m1220 -14 c0 -12 -26 -21 -58 -21 -26 1 -26 1 -8
15 22 16 66 20 66 6z m126 -86 c-38 -29 -177 -74 -276 -90 -53 -8 -45 6 13 25
21 6 50 22 65 34 42 35 63 40 69 16 6 -22 14 -25 29 -10 12 12 83 38 104 39
11 0 10 -3 -4 -14z m-762 -291 c12 -32 18 -121 8 -128 -6 -3 -12 17 -16 52 -4
31 -9 65 -12 75 -7 21 12 23 20 1z m80 -6 c22 -35 29 -83 21 -149 -4 -33 -9
-59 -10 -57 -2 2 -9 41 -15 88 -6 47 -16 89 -21 95 -12 12 -12 45 1 45 5 0 16
-10 24 -22z m90 -25 c17 -51 21 -93 8 -93 -9 0 -24 46 -37 108 -10 49 11 39
29 -15z m-229 -55 c19 -64 19 -98 1 -98 -14 0 -18 16 -32 114 -9 64 10 54 31
-16z m515 31 c0 -11 -4 -17 -10 -14 -5 3 -10 13 -10 21 0 8 5 14 10 14 6 0 10
-9 10 -21z m-580 -60 c0 -18 -4 -28 -10 -24 -5 3 -10 20 -10 36 0 18 4 28 10
24 6 -3 10 -20 10 -36z m-330 -9 c0 -11 -4 -20 -10 -20 -5 0 -10 9 -10 20 0
11 5 20 10 20 6 0 10 -9 10 -20z m845 14 c20 -8 45 -56 45 -86 l-1 -23 -19 24
-20 23 0 -61 c0 -39 -4 -60 -10 -56 -5 3 -10 15 -10 26 0 10 -4 19 -9 19 -10
0 -21 -35 -21 -72 0 -15 -4 -30 -10 -33 -6 -4 -10 21 -10 68 0 59 -4 79 -20
100 -25 31 -25 53 -2 66 19 12 62 14 87 5z m-598 -36 c-3 -7 -5 -2 -5 12 0 14
2 19 5 13 2 -7 2 -19 0 -25z m-93 -14 c9 -23 7 -44 -3 -44 -5 0 -11 14 -13 30
-5 32 6 41 16 14z m533 -31 c10 -37 10 -143 0 -168 -15 -38 -27 7 -27 103 0
91 12 120 27 65z m-687 0 c0 -22 -17 -50 -25 -42 -6 7 11 59 20 59 3 0 5 -8 5
-17z m963 -50 c8 -16 17 -47 21 -71 3 -24 20 -86 37 -139 36 -112 38 -150 12
-195 -26 -45 -57 -48 -77 -9 -20 38 -20 97 -1 210 10 58 13 101 7 122 -10 41
-32 51 -32 15 0 -14 -4 -26 -9 -26 -13 0 -21 26 -21 66 0 31 3 35 20 29 14 -5
20 -2 20 9 0 23 8 20 23 -11z m103 -39 c8 -20 13 -41 11 -47 -4 -13 -47 51
-47 71 0 25 21 11 36 -24z m621 -1 c19 -9 39 -28 45 -42 29 -74 42 -94 100
-156 56 -61 170 -161 352 -312 71 -58 140 -172 134 -221 -3 -26 -4 -25 -31 21
-30 51 -40 56 -57 30 -9 -16 -14 -14 -43 22 -83 104 -225 225 -264 225 -7 0
-13 -7 -13 -16 0 -20 -11 -16 -81 29 -51 32 -119 109 -148 165 -18 34 -2 27
46 -20 48 -47 55 -36 18 27 -21 37 -134 140 -189 172 -12 7 -47 12 -79 13 -72
0 -72 14 2 52 63 33 152 38 208 11z m-2684 -325 c2 -58 8 -112 12 -118 15 -24
25 15 25 100 0 82 10 124 24 102 3 -6 12 -67 20 -137 8 -69 16 -129 19 -131 3
-3 8 48 11 113 8 149 14 189 27 176 5 -5 14 -88 20 -183 5 -96 12 -176 14
-179 12 -11 16 14 25 159 6 85 13 156 16 159 11 12 24 -27 24 -74 0 -65 29
-225 41 -225 5 0 9 39 9 88 0 99 9 162 21 162 5 0 9 -28 9 -62 1 -111 31 -278
50 -278 6 0 10 39 11 88 l1 87 20 -73 c28 -99 72 -147 143 -157 93 -12 100
-25 46 -90 -48 -58 -84 -164 -101 -293 -25 -195 29 -372 153 -500 54 -56 85
-72 140 -72 l44 0 26 -67 c40 -101 58 -125 133 -178 92 -66 164 -94 239 -95
52 0 69 -5 120 -37 64 -40 62 -49 -6 -34 -80 18 -65 -5 41 -60 44 -23 80 -46
80 -51 0 -19 -64 2 -200 66 -138 65 -257 100 -321 94 -32 -3 -30 -4 26 -21
149 -44 433 -175 442 -204 6 -16 -32 -5 -175 53 -127 51 -201 74 -247 74 -49
0 -15 -19 71 -41 98 -24 214 -77 214 -97 0 -16 -6 -15 -105 12 -58 16 -225 34
-215 23 3 -3 70 -22 150 -42 80 -21 186 -55 235 -77 50 -21 120 -51 158 -65
70 -26 91 -50 35 -38 -18 4 -82 22 -142 41 -178 57 -347 92 -323 67 4 -3 85
-32 180 -64 187 -62 347 -126 347 -139 0 -10 -14 -7 -158 36 -165 50 -364 81
-348 55 3 -4 38 -18 78 -30 313 -95 556 -198 343 -146 -79 20 -292 55 -330 55
-55 0 -11 -17 210 -84 121 -36 245 -74 275 -85 48 -17 51 -20 24 -20 -16 -1
-77 8 -135 18 -123 23 -290 44 -296 37 -7 -6 82 -31 262 -72 166 -38 343 -96
313 -102 -10 -2 -50 4 -90 12 -65 14 -299 46 -337 46 -36 0 7 -14 111 -36 132
-28 354 -96 383 -118 l20 -15 -20 -1 c-11 0 -76 14 -145 31 -136 33 -283 49
-294 31 -8 -13 2 -16 144 -41 106 -19 281 -65 340 -89 24 -10 24 -11 -10 -11
-20 -1 -89 10 -155 24 -127 26 -171 30 -179 16 -6 -10 39 -24 154 -46 106 -21
230 -60 293 -91 26 -14 47 -26 47 -28 0 -6 -131 21 -189 38 -65 19 -200 32
-186 18 6 -6 82 -28 170 -50 299 -75 392 -119 153 -72 -141 28 -280 40 -358
32 l-65 -7 110 -13 c197 -24 465 -89 465 -114 0 -12 -12 -11 -171 17 -145 25
-263 32 -287 16 -19 -12 -1 -18 100 -31 104 -14 470 -88 477 -96 6 -7 -70 -1
-214 16 -44 5 -118 9 -165 8 l-85 0 90 -18 c50 -10 134 -25 188 -35 53 -9 97
-21 97 -26 0 -5 -68 -9 -152 -9 -87 0 -148 -4 -142 -9 5 -5 59 -14 119 -20
119 -13 273 -42 345 -65 l45 -14 -42 -1 c-23 -1 -90 6 -147 15 -58 8 -125 14
-148 12 -34 -2 -13 -9 102 -31 193 -37 320 -67 320 -75 0 -4 -39 -6 -87 -5
l-88 3 59 -19 c78 -26 97 -46 36 -37 -244 33 -404 44 -415 26 -7 -12 19 -17
120 -24 92 -7 267 -35 277 -44 4 -4 -61 -6 -145 -5 -150 3 -175 -7 -57 -21
112 -14 230 -38 230 -47 0 -5 -31 -9 -69 -9 -72 0 -103 -15 -54 -25 66 -14 87
-21 90 -31 4 -13 -136 -44 -201 -44 -59 0 -262 -40 -409 -81 -140 -38 -329
-130 -437 -212 -232 -177 -514 -446 -647 -617 -45 -58 -116 -144 -158 -190
-43 -47 -107 -122 -142 -167 -36 -45 -87 -99 -113 -120 -26 -21 -123 -105
-216 -187 -194 -171 -380 -313 -468 -356 -61 -30 -318 -100 -366 -100 -14 0
-95 -16 -180 -35 -85 -19 -180 -38 -210 -41 -30 -4 -114 -22 -186 -40 -226
-57 -441 -67 -486 -22 -27 27 -19 50 27 74 34 17 73 67 75 97 0 4 -18 7 -40 7
-22 0 -40 3 -40 6 0 4 9 21 20 39 14 22 24 71 35 166 16 136 34 221 62 290 19
50 34 50 22 2 -21 -91 -39 -247 -30 -256 25 -25 73 118 90 268 6 50 19 149 30
220 10 72 22 165 26 208 7 69 6 77 -9 71 -26 -10 -20 25 9 52 15 14 25 34 25
50 0 27 -1 27 -15 8 -18 -24 -17 -51 -16 336 1 168 -2 320 -7 338 l-7 32 -28
-35 c-15 -19 -24 -35 -20 -35 4 0 15 -4 22 -9 12 -8 11 -13 -8 -28 -22 -18
-23 -27 -32 -228 -11 -244 -17 -301 -30 -288 -13 13 -13 36 -1 273 5 113 15
217 21 232 6 16 8 28 5 28 -12 0 -74 -152 -108 -262 -19 -65 -41 -128 -48
-140 -12 -22 -12 -22 -20 12 -4 19 -26 121 -48 225 -38 174 -47 203 -111 337
-38 81 -69 152 -69 158 0 6 -28 71 -61 143 -34 73 -89 213 -122 312 -60 177
-61 182 -63 293 0 64 -5 117 -11 120 -14 10 4 147 29 207 11 28 22 60 25 73 3
12 22 41 43 65 l38 42 -5 -42 c-10 -77 24 -52 133 95 49 65 138 166 201 227
62 61 113 113 113 117 0 12 -69 -27 -70 -39 0 -7 -5 -13 -10 -13 -6 0 -62 -49
-125 -110 -111 -106 -148 -133 -125 -91 11 21 203 202 290 275 54 44 55 45 58
21 2 -14 6 -25 9 -25 2 0 35 25 71 55 75 62 94 69 62 24 -12 -16 -20 -32 -18
-34 11 -12 298 252 298 274 0 6 -8 7 -17 4 -26 -10 17 47 74 96 61 54 74 52
29 -4 -21 -25 -34 -45 -31 -45 4 0 36 21 73 47 64 46 315 282 300 283 -4 0
-57 -43 -118 -95 -126 -108 -154 -129 -171 -123 -30 10 192 213 266 243 35 15
54 39 41 52 -3 3 -18 1 -32 -6 -19 -8 0 17 57 79 46 49 115 127 152 173 85
101 255 354 302 448 27 52 40 69 56 69 18 0 20 4 14 31 -8 35 7 79 44 129 24
33 26 44 31 175 6 174 20 163 45 -35 22 -183 40 -196 31 -24 -6 137 1 237 15
212 8 -14 30 -170 46 -323 l7 -70 7 55 c4 30 7 121 8 201 1 80 4 149 8 153 14
13 21 -21 26 -126z m1197 122 c0 -12 -40 -33 -48 -25 -4 4 2 13 12 21 23 16
36 18 36 4z m-1432 -73 c2 -26 -1 -47 -7 -47 -13 0 -34 67 -27 86 11 30 31 7
34 -39z m-98 23 c16 -29 25 -170 12 -170 -7 0 -17 20 -23 45 -12 47 -29 70
-29 38 0 -10 9 -51 20 -92 11 -41 20 -84 20 -95 -1 -21 -1 -21 -15 -2 -8 11
-29 55 -45 98 -32 81 -40 164 -18 186 19 19 66 15 78 -8z m2838 -22 c3 -15 -4
-18 -37 -18 -45 0 -60 13 -34 29 26 16 67 9 71 -11z m122 -49 c22 -28 40 -59
40 -70 0 -59 137 -145 253 -158 68 -8 117 -26 117 -43 0 -4 -12 -3 -26 2 -33
13 -144 13 -144 0 0 -5 12 -10 26 -10 87 0 171 -62 194 -143 25 -91 -12 -216
-72 -245 -88 -42 -215 84 -274 271 l-18 57 37 38 c20 21 37 43 37 48 0 6 -18
16 -41 23 -34 10 -44 20 -60 57 -11 24 -32 52 -46 61 -14 9 -34 37 -44 61 -11
24 -28 57 -39 72 -52 74 0 55 60 -21z m-1343 33 c-9 -10 -35 -28 -58 -41 l-41
-23 12 21 c12 24 67 61 89 61 11 0 11 -4 -2 -18z m918 -48 l-30 -25 75 7 c96
8 150 -6 185 -49 15 -17 50 -48 78 -67 42 -28 59 -49 87 -106 46 -93 103 -257
88 -252 -15 5 -44 60 -86 165 -35 86 -65 133 -78 121 -8 -9 30 -118 57 -162
10 -17 19 -48 19 -69 0 -35 9 -47 102 -143 139 -143 101 -138 -61 9 -35 31
-66 55 -69 53 -6 -7 59 -94 95 -128 15 -14 75 -56 133 -94 111 -71 120 -97 17
-46 -77 38 -189 132 -243 203 -53 70 -53 69 -64 129 -5 29 -25 78 -44 109 -19
31 -42 76 -52 101 -26 66 -59 113 -96 135 -29 17 -49 20 -150 18 -76 -1 -118
2 -118 8 0 19 58 69 79 69 11 0 25 9 31 20 7 14 21 20 43 20 l32 -1 -30 -25z
m-280 -87 c39 -65 41 -67 81 -67 95 0 118 -14 125 -75 4 -29 3 -30 -33 -27
-23 2 -38 -2 -38 -8 0 -6 37 -50 83 -98 45 -48 118 -132 163 -187 45 -55 113
-134 151 -175 l70 -75 6 -240 c4 -190 8 -250 21 -286 10 -28 51 -87 102 -147
96 -114 131 -139 366 -261 84 -44 169 -92 187 -106 19 -14 61 -30 92 -37 44
-9 60 -17 68 -35 6 -14 19 -23 33 -23 21 0 98 -65 98 -82 0 -15 -39 -8 -141
27 -56 19 -105 32 -108 29 -10 -10 40 -43 82 -55 78 -21 110 -34 106 -44 -7
-19 -69 -6 -137 28 -134 68 -347 189 -386 222 -23 18 -52 38 -65 45 -14 7 -20
15 -14 21 6 6 73 -23 177 -77 92 -47 169 -84 172 -81 8 7 -81 69 -176 122
-190 107 -352 232 -420 325 -23 30 -59 71 -81 90 -47 41 -52 59 -74 248 -8 70
-19 143 -25 162 -5 19 -10 56 -10 83 0 84 -47 151 -265 377 -171 177 -255 312
-272 436 -9 65 11 56 62 -29z m-958 -19 c-3 -8 -6 -5 -6 6 -1 11 2 17 5 13 3
-3 4 -12 1 -19z m671 -32 c52 -56 66 -82 50 -92 -7 -4 -18 2 -27 16 -9 14 -33
44 -53 68 -42 48 -44 52 -24 52 7 0 32 -20 54 -44z m-5700 -18 c-6 -16 -33
-22 -56 -13 -14 5 -14 7 -2 15 22 14 62 12 58 -2z m362 -23 c0 -11 -11 -15
-39 -15 -42 0 -64 15 -34 23 40 11 73 7 73 -8z m4278 -74 c12 -34 2 -54 -24
-49 -21 4 -29 36 -19 75 5 20 9 22 20 13 7 -6 18 -24 23 -39z m-71 -49 c3 -13
1 -28 -5 -34 -7 -7 -14 1 -21 28 -16 56 -14 74 5 49 8 -11 17 -30 21 -43z
m1874 -141 c27 -44 56 -82 64 -85 20 -7 19 -26 0 -26 -20 0 -103 76 -121 111
-16 32 -19 79 -4 79 6 0 33 -36 61 -79z m769 53 c0 -8 -4 -12 -10 -9 -5 3 -10
13 -10 21 0 8 5 12 10 9 6 -3 10 -13 10 -21z m105 -83 c7 -12 -12 -24 -25 -16
-11 7 -4 25 10 25 5 0 11 -4 15 -9z m-1195 -77 c100 -159 132 -512 60 -655
-11 -20 -33 -91 -50 -158 -31 -124 -75 -239 -87 -228 -3 4 0 59 7 122 7 63 10
118 7 121 -23 23 -51 -189 -46 -344 l4 -107 60 -64 c153 -162 227 -231 286
-266 129 -75 255 -193 247 -231 -2 -13 -31 4 -123 73 -66 49 -136 99 -155 112
-19 13 -68 56 -107 95 l-73 70 0 -34 c0 -58 31 -93 156 -176 129 -85 210 -156
199 -173 -7 -13 -54 10 -153 73 -37 24 -87 54 -112 66 -93 47 -219 191 -278
318 -26 56 -27 61 -26 247 1 332 71 760 120 741 30 -12 30 116 -2 252 -17 76
-17 82 -4 82 6 0 27 -34 47 -75 19 -41 37 -75 40 -75 9 0 -8 72 -38 163 -33
99 -33 97 -19 97 6 0 24 -21 40 -46z m-910 -26 c0 -5 -4 -8 -10 -8 -5 0 -10
10 -10 23 0 18 2 19 10 7 5 -8 10 -18 10 -22z m330 2 c8 -16 8 -20 -3 -20 -18
0 -39 24 -30 33 11 12 22 8 33 -13z m-5443 -45 c-4 -8 -11 -15 -17 -15 -7 0
-7 6 0 21 13 23 26 19 17 -6z m4768 -4 c104 -48 174 -177 145 -265 -22 -67
-39 -40 -37 60 1 108 -53 162 -182 183 -71 11 -83 18 -61 31 24 16 92 11 135
-9z m2402 -80 c-12 -5 -27 19 -27 44 0 16 3 15 19 -10 10 -16 14 -32 8 -34z
m89 5 c-24 -44 -136 -108 -136 -77 0 5 10 11 23 14 12 4 44 29 71 56 55 56 70
58 42 7z m-2465 -59 c34 -24 62 -85 57 -123 -2 -23 -9 -30 -29 -32 -22 -3 -28
4 -51 58 -23 51 -31 61 -57 66 -39 8 -39 17 2 42 34 20 36 20 78 -11z m952
-17 c3 -11 2 -20 -3 -20 -8 0 -20 24 -20 41 0 17 17 1 23 -21z m-76 -47 c-3
-10 -5 -2 -5 17 0 19 2 27 5 18 2 -10 2 -26 0 -35z m565 1 c28 -64 38 -103 29
-109 -7 -4 -35 63 -58 138 -11 35 9 15 29 -29z m-6167 6 c-3 -5 -13 -10 -21
-10 -8 0 -12 5 -9 10 3 6 13 10 21 10 8 0 12 -4 9 -10z m4668 -63 c15 -19 18
-30 10 -38 -7 -7 -21 -1 -47 21 -20 18 -36 36 -36 42 0 20 54 2 73 -25z m1017
-13 c0 -14 -4 -22 -10 -19 -5 3 -10 17 -10 31 0 14 4 22 10 19 6 -3 10 -17 10
-31z m-212 -59 c-5 -48 -23 -34 -26 20 -2 47 -1 49 13 30 9 -11 15 -33 13 -50z
m-994 7 c-4 -12 -10 -22 -15 -22 -11 0 -12 44 -2 54 12 11 23 -9 17 -32z
m2176 -12 c7 -42 1 -80 -11 -80 -5 0 -9 8 -9 17 0 13 -3 14 -12 5 -8 -8 -8
-31 0 -89 11 -82 5 -144 -16 -151 -8 -2 -12 13 -12 55 0 32 -9 96 -20 142 -21
87 -20 125 2 103 18 -18 25 -15 32 14 10 38 40 28 46 -16z m84 23 c8 -19 -8
-38 -23 -29 -16 10 -13 46 3 46 8 0 17 -8 20 -17z m-1634 -12 c0 -10 -30 -24
-37 -17 -3 3 -2 9 2 15 8 13 35 15 35 2z m1105 -38 c5 -23 1 -32 -22 -50 l-28
-23 -3 36 c-5 59 39 90 53 37z m-1472 -30 c-7 -2 -19 -2 -25 0 -7 3 -2 5 12 5
14 0 19 -2 13 -5z m1747 -27 c0 -19 -4 -38 -10 -41 -6 -4 -10 10 -10 34 0 23
5 41 10 41 6 0 10 -15 10 -34z m-955 -25 c8 -37 -12 -114 -28 -108 -12 4 -15
92 -3 122 9 24 24 17 31 -14z m-856 -50 c63 -20 70 -35 19 -39 -49 -4 -74 10
-98 58 -26 52 -25 62 4 27 14 -17 45 -36 75 -46z m752 33 c-12 -15 -21 -32
-21 -39 0 -21 -41 -65 -79 -84 -69 -36 -171 -39 -171 -5 0 11 15 14 61 14 59
0 129 22 129 41 0 13 80 99 92 99 5 0 0 -12 -11 -26z m1073 -108 c25 -86 91
-207 141 -259 31 -32 71 -60 120 -82 70 -32 101 -55 73 -55 -8 0 -47 16 -87
35 -144 69 -259 222 -269 357 -3 32 -2 58 1 58 3 0 13 -24 21 -54z m-229 -17
c4 -6 4 -31 0 -57 l-7 -47 -18 35 -18 35 -8 -63 c-7 -67 -21 -71 -31 -9 -7 45
11 91 40 105 29 14 35 14 42 1z m-1236 -38 c26 -36 26 -41 1 -41 -25 0 -25
-15 0 -40 23 -23 93 -60 114 -60 30 0 69 -21 59 -31 -13 -13 -129 24 -172 55
-26 20 -38 23 -48 15 -11 -9 -13 2 -13 60 0 63 2 71 19 71 11 0 29 -13 40 -29z
m523 -51 c-6 -27 -18 -65 -26 -85 -17 -39 -41 -49 -33 -12 5 20 33 121 43 156
4 11 8 11 16 3 9 -9 9 -24 0 -62z m591 -70 c8 -58 13 -107 10 -109 -2 -3 -11
3 -20 12 -13 13 -18 40 -21 120 -5 132 11 120 31 -23z m-82 43 c0 -5 2 -57 4
-118 3 -102 3 -108 -11 -82 -28 52 -31 207 -4 207 6 0 10 -3 11 -7z m-1227
-64 c-3 -5 -10 -7 -15 -3 -5 3 -7 10 -3 15 3 5 10 7 15 3 5 -3 7 -10 3 -15z
m304 -65 c53 -16 117 -15 180 2 30 9 28 -10 -3 -24 -53 -24 -230 -8 -256 24
-16 19 7 19 79 -2z m878 -172 c-12 -12 -26 13 -25 46 l0 37 15 -39 c8 -22 12
-41 10 -44z m-96 -67 c0 -14 -4 -25 -10 -25 -5 0 -10 11 -10 25 0 14 5 25 10
25 6 0 10 -11 10 -25z m-630 -286 c77 -23 96 -46 29 -35 -45 7 -113 39 -125
58 -5 8 -2 9 10 5 9 -4 48 -16 86 -28z m893 -73 c30 -19 81 -48 114 -64 32
-15 79 -42 104 -59 57 -40 142 -130 134 -144 -8 -12 -25 -2 -155 95 -52 39
-120 88 -150 108 -53 36 -121 98 -107 98 4 0 31 -15 60 -34z m-3964 -2198 c0
-13 -4 -32 -8 -42 -10 -27 -21 1 -14 37 6 33 23 36 22 5z m-34 -228 l-15 -45
5 65 c2 36 7 74 12 85 16 39 14 -58 -2 -105z m-48 58 c-3 -8 -6 -5 -6 6 -1 11
2 17 5 13 3 -3 4 -12 1 -19z m162 -123 c-6 -42 -15 -88 -20 -102 -5 -13 -9
-37 -9 -53 0 -16 -4 -32 -10 -35 -5 -3 -10 -4 -10 0 0 19 42 259 46 267 13 20
14 -2 3 -77z m-99 -181 c0 -7 -9 -22 -20 -32 -11 -10 -27 -39 -35 -63 l-15
-44 4 70 c2 41 10 84 20 104 l18 33 14 -27 c8 -15 14 -33 14 -41z m27 -236
c-3 -7 -5 -2 -5 12 0 14 2 19 5 13 2 -7 2 -19 0 -25z m-171 -190 c-17 -88 -31
-140 -39 -145 -12 -7 -2 89 14 135 13 36 32 44 25 10z m-115 -153 l-9 -40 -1
37 c-1 41 11 84 17 58 1 -9 -2 -33 -7 -55z m190 -86 c-43 -329 -41 -319 -51
-294 -5 11 -9 62 -9 114 -1 52 -3 92 -5 90 -3 -2 -14 -62 -26 -133 -22 -137
-32 -166 -55 -166 -44 0 -46 153 -2 219 13 20 32 59 41 88 9 29 28 67 42 85
13 18 34 49 46 68 28 43 32 29 19 -71z m-214 -51 c-2 -13 -4 -5 -4 17 -1 22 1
32 4 23 2 -10 2 -28 0 -40z"/>
<path d="M5154 11819 c-11 -13 -44 -112 -44 -131 0 -4 4 -8 9 -8 13 0 53 109
49 133 -3 17 -5 18 -14 6z"/>
<path d="M6250 11203 c0 -5 -7 -51 -15 -103 -17 -112 -18 -130 -6 -130 25 0
59 153 46 210 -6 26 -25 43 -25 23z"/>
<path d="M5983 10566 c6 -35 53 -116 68 -116 15 0 10 23 -21 88 -32 69 -56 83
-47 28z"/>
<path d="M2111 11776 c-22 -12 -18 -14 45 -20 38 -4 79 -9 92 -13 32 -8 27 14
-8 32 -35 18 -97 19 -129 1z"/>
<path d="M1682 11637 c-27 -28 -28 -47 -4 -47 21 0 48 48 34 62 -4 4 -18 -2
-30 -15z"/>
<path d="M1742 11598 c-7 -7 -12 -17 -12 -24 0 -7 -16 -27 -36 -46 -68 -62
-93 -162 -59 -228 24 -46 75 -35 75 17 0 16 -6 23 -19 23 -54 0 -29 107 45
194 19 22 34 48 34 58 0 21 -11 23 -28 6z"/>
<path d="M2328 11483 c6 -2 18 -2 25 0 6 3 1 5 -13 5 -14 0 -19 -2 -12 -5z"/>
<path d="M1959 11420 c-14 -11 -18 -19 -11 -20 19 0 52 19 52 30 0 16 -16 12
-41 -10z"/>
<path d="M1752 11266 c-34 -33 -62 -67 -62 -76 0 -23 29 -48 38 -33 4 5 27 40
50 76 60 91 49 105 -26 33z"/>
<path d="M1975 11291 c-59 -28 -145 -107 -145 -134 0 -18 21 -37 40 -37 9 0
26 14 38 30 24 31 48 41 38 15 -3 -8 -2 -15 3 -15 15 0 33 29 28 44 -3 8 2 20
10 28 15 11 16 11 10 -4 -9 -24 10 -23 51 2 34 21 38 33 22 74 -12 33 -21 32
-95 -3z"/>
<path d="M1249 11193 c-27 -69 9 -202 77 -282 32 -38 47 -36 54 8 7 48 25 37
23 -14 -2 -56 22 -62 31 -7 10 62 8 69 -24 75 -38 8 -56 38 -72 115 -7 35 -17
63 -23 63 -5 0 -14 -22 -20 -48 -15 -69 -28 -38 -19 47 5 50 3 70 -5 70 -6 0
-16 -12 -22 -27z"/>
<path d="M2128 11167 c-97 -53 -108 -67 -138 -184 -16 -62 -30 -53 -30 20 -1
47 -3 58 -11 44 -15 -26 -29 -11 -29 34 0 21 -4 39 -9 39 -20 0 -22 -44 -5
-147 25 -154 25 -316 -1 -368 -20 -40 -31 -46 -108 -58 l-38 -6 7 46 c6 43 5
46 -12 39 -35 -14 -39 -11 -37 28 3 44 17 66 44 66 11 0 19 5 19 10 0 16 -63
12 -88 -6 -13 -9 -25 -14 -28 -11 -3 2 0 35 7 71 6 37 8 70 5 73 -4 4 -24 -11
-46 -32 l-40 -39 0 -88 0 -88 -45 7 c-121 16 14 -97 170 -143 152 -44 303 -14
460 92 132 89 157 96 370 105 99 4 194 10 212 14 68 15 69 -1 5 -69 -73 -79
-103 -149 -103 -246 -1 -240 218 -433 517 -455 49 -4 112 -13 141 -21 28 -8
53 -14 56 -14 3 0 8 17 12 37 15 83 54 123 121 123 78 0 193 -100 241 -210 26
-60 28 -75 28 -182 -1 -88 2 -118 12 -118 33 0 44 164 18 265 -27 102 -168
268 -252 296 -49 16 -71 7 -164 -66 -90 -71 -115 -81 -105 -40 4 14 0 49 -9
77 -44 148 14 275 135 298 64 12 185 -1 245 -26 98 -41 129 -35 52 11 -55 32
-138 60 -234 80 -80 17 -205 23 -238 12 -18 -7 -42 -41 -102 -151 -23 -42 -31
-106 -13 -106 6 0 10 11 10 24 0 59 73 165 128 184 31 11 72 -1 72 -21 0 -7
-21 -33 -46 -57 -62 -60 -74 -92 -74 -197 0 -148 -12 -161 -84 -90 -48 49 -73
120 -61 179 9 51 67 200 87 227 22 29 8 61 -27 61 -99 0 -152 -206 -96 -372
26 -77 21 -105 -17 -115 -34 -8 -121 37 -164 85 -46 54 -89 154 -101 238 -15
100 0 171 48 232 19 25 35 56 35 68 0 14 10 30 26 40 36 24 230 80 341 99 108
19 125 24 117 36 -8 14 -109 11 -223 -6 -112 -17 -253 -22 -288 -11 -33 10
-28 26 6 26 38 0 49 18 17 26 -15 3 -38 -1 -57 -10 -44 -22 -50 -21 -191 20
-116 34 -129 36 -228 31 -58 -3 -116 -10 -130 -16 -32 -12 -39 -11 125 -21
116 -7 152 -13 210 -35 39 -15 89 -33 113 -39 24 -6 43 -16 43 -21 -1 -20 -53
-15 -146 14 -52 17 -110 31 -128 30 -32 0 -32 0 12 -17 57 -22 65 -42 16 -42
-20 0 -81 -11 -135 -25 l-99 -25 -76 30 c-41 16 -77 30 -80 30 -2 0 -5 -19 -7
-42 -2 -24 -7 -43 -13 -42 -16 1 -18 34 -5 75 11 33 10 45 -4 81 -9 24 -16 53
-16 65 0 36 47 153 71 179 34 36 154 93 224 105 59 11 61 11 125 -24 36 -20
103 -46 150 -57 100 -25 311 -38 353 -21 29 11 36 35 12 45 -10 3 -15 19 -15
44 0 42 -14 62 -43 62 -15 0 -17 -5 -12 -28 16 -73 -103 -88 -290 -37 -176 49
-258 65 -330 64 -63 0 -78 -4 -147 -42z m-118 -496 c0 -40 -16 -99 -32 -116
-8 -9 -2 123 8 153 8 26 24 0 24 -37z"/>
<path d="M1632 10948 c-17 -23 -43 -79 -40 -89 5 -14 77 41 84 64 9 29 -24 48
-44 25z"/>
<path d="M2264 10950 c-47 -19 -36 -30 30 -30 58 0 82 10 59 23 -19 11 -70 15
-89 7z"/>
<path d="M2490 10926 c0 -12 84 -46 113 -46 38 0 25 17 -21 29 -76 20 -92 23
-92 17z"/>
<path d="M3077 10876 c-98 -34 -127 -49 -114 -63 14 -13 267 70 267 88 0 17
-55 8 -153 -25z"/>
<path d="M1731 10864 c-30 -25 -41 -54 -22 -54 16 0 71 51 71 66 0 21 -15 17
-49 -12z"/>
<path d="M1782 10812 c-9 -6 -4 -16 18 -37 25 -24 30 -37 30 -74 0 -68 16 -84
30 -33 22 82 -28 175 -78 144z"/>
<path d="M2233 10790 c-31 -13 -29 -30 3 -30 35 0 104 21 104 32 0 11 -79 9
-107 -2z"/>
<path d="M3181 10696 c-17 -21 37 -28 154 -19 l100 7 -50 12 c-72 17 -190 17
-204 0z"/>
<path d="M3432 10538 c5 -15 84 -42 149 -53 40 -6 42 -5 24 8 -27 19 -131 57
-156 57 -12 0 -19 -5 -17 -12z"/>
<path d="M1345 10350 c-53 -110 -57 -135 -20 -126 27 7 32 -3 13 -22 -6 -6 -9
-15 -5 -18 12 -12 37 63 37 109 0 24 7 66 15 92 8 27 12 51 10 53 -2 3 -25
-37 -50 -88z"/>
<path d="M3476 10265 c-75 -27 -145 -119 -146 -192 0 -62 38 -26 60 56 27 103
132 136 259 80 54 -24 66 -16 26 18 -64 53 -125 65 -199 38z"/>
<path d="M1418 10200 c-49 -87 -80 -168 -68 -175 14 -9 74 30 94 60 20 31 37
106 26 120 -4 5 -10 21 -12 35 -3 22 -8 16 -40 -40z"/>
<path d="M3470 10168 c-19 -13 -35 -29 -38 -35 -8 -25 29 -12 66 22 43 40 25
48 -28 13z"/>
<path d="M2910 10097 c0 -18 60 -41 72 -29 11 11 -10 28 -45 37 -20 6 -27 4
-27 -8z"/>
<path d="M1277 10073 c-4 -3 -7 -20 -7 -37 l1 -31 14 25 c21 38 16 67 -8 43z"/>
<path d="M3438 9979 c-10 -5 -18 -14 -18 -18 0 -10 125 -22 145 -15 20 8 19
30 -1 38 -25 10 -107 6 -126 -5z"/>
<path d="M2147 8724 c-23 -23 53 -74 110 -74 22 0 36 -6 40 -17 5 -14 8 -13
14 6 8 20 11 21 36 8 45 -23 96 -32 91 -16 -2 8 -58 33 -124 56 -116 41 -154
50 -167 37z"/>
<path d="M2390 8695 c0 -8 5 -15 10 -15 6 0 10 7 10 15 0 8 -4 15 -10 15 -5 0
-10 -7 -10 -15z"/>
<path d="M750 8249 c0 -28 112 -310 137 -343 14 -20 14 -19 8 14 -13 63 -145
362 -145 329z"/>
<path d="M710 8145 c0 -31 26 -85 42 -85 6 0 8 11 5 28 -15 72 -47 112 -47 57z"/>
<path d="M5350 8116 c-61 -13 -109 -36 -130 -61 -22 -27 -6 -26 56 1 77 34
174 43 240 20 61 -21 62 -21 35 8 -14 15 -44 29 -73 35 -58 13 -57 13 -128 -3z"/>
<path d="M681 8073 c0 -10 4 -27 8 -38 8 -20 8 -20 15 1 7 23 -1 54 -15 54 -5
0 -9 -8 -8 -17z"/>
<path d="M606 7875 c4 -8 10 -15 15 -15 5 0 9 7 9 15 0 8 -7 15 -15 15 -9 0
-12 -6 -9 -15z"/>
<path d="M1856 7881 c-4 -6 -3 -11 1 -11 5 0 42 -29 82 -65 55 -48 82 -65 103
-65 37 0 44 20 24 71 -21 51 -14 59 23 31 25 -18 31 -19 41 -7 7 8 22 15 34
15 11 0 27 4 34 9 26 16 -20 23 -179 28 -111 4 -158 2 -163 -6z"/>
<path d="M5703 7853 c-9 -30 -9 -43 4 -66 8 -16 16 -27 17 -25 2 1 6 31 10 66
5 48 4 62 -6 62 -7 0 -18 -17 -25 -37z"/>
<path d="M1825 7820 c21 -22 44 -40 49 -40 6 0 -8 18 -29 40 -21 22 -44 40
-49 40 -6 0 8 -18 29 -40z"/>
<path d="M5611 7733 c18 -93 45 -153 71 -153 20 0 7 85 -23 141 -40 74 -60 79
-48 12z"/>
<path d="M5800 7664 c0 -53 5 -148 12 -210 10 -101 10 -125 -6 -211 -24 -127
-46 -186 -106 -276 -91 -141 -242 -279 -410 -377 -118 -69 -82 -85 43 -20 42
23 77 37 77 33 0 -4 -12 -20 -27 -36 l-28 -30 30 7 c52 12 136 54 219 111 121
80 181 138 212 202 27 54 27 56 9 69 -18 13 -18 15 3 37 46 49 80 180 89 347
7 129 -6 190 -40 190 -30 0 -47 18 -47 49 l0 24 25 -23 c29 -27 30 -21 15 59
-11 59 -48 151 -61 151 -5 0 -9 -43 -9 -96z m-30 -772 c0 -18 -33 -52 -51 -52
-26 0 -24 24 4 43 24 17 47 22 47 9z m-135 -122 c-29 -30 -52 -45 -54 -38 -4
13 74 88 92 88 6 0 -11 -23 -38 -50z"/>
<path d="M537 7680 c3 -11 9 -20 14 -20 11 0 11 3 3 24 -9 23 -23 20 -17 -4z"/>
<path d="M421 7403 c-14 -49 -14 -72 0 -112 7 -20 15 -29 21 -23 5 5 5 20 -2
36 -22 60 -2 78 27 24 15 -29 18 -30 21 -12 4 26 -29 116 -45 121 -7 3 -16
-12 -22 -34z"/>
<path d="M1343 7348 c-5 -7 -18 -35 -28 -63 -10 -27 -28 -71 -41 -97 l-24 -47
62 -55 c34 -31 65 -56 70 -56 19 0 5 25 -32 59 -22 20 -40 42 -40 48 0 27 22
21 65 -18 25 -23 48 -39 51 -36 9 9 -22 60 -55 91 -41 39 -41 60 -1 51 29 -6
30 -5 29 27 0 41 -20 100 -35 105 -6 2 -15 -2 -21 -9z"/>
<path d="M4880 7281 c0 -11 5 -23 10 -26 6 -3 10 3 10 14 0 11 -4 23 -10 26
-5 3 -10 -3 -10 -14z"/>
<path d="M390 7214 c0 -14 4 -23 10 -19 6 3 10 15 10 26 0 10 -4 19 -10 19 -5
0 -10 -12 -10 -26z"/>
<path d="M336 7185 c-6 -17 2 -45 14 -45 10 0 21 41 14 52 -8 13 -21 9 -28 -7z"/>
<path d="M4830 7068 c0 -16 5 -28 10 -28 13 0 13 20 0 40 -8 12 -10 9 -10 -12z"/>
<path d="M4766 7010 c4 -14 13 -34 20 -45 14 -19 14 -19 14 2 0 11 -9 31 -21
44 l-20 24 7 -25z"/>
<path d="M1257 6988 c-11 -34 42 -125 113 -193 40 -39 42 -40 56 -20 14 18 13
21 -5 34 -12 7 -21 21 -21 30 0 23 -31 71 -77 119 -41 43 -58 51 -66 30z"/>
<path d="M1270 6808 c0 -19 90 -99 108 -96 29 6 19 24 -35 67 -54 42 -73 50
-73 29z"/>
<path d="M4630 6790 c0 -15 38 -87 50 -95 16 -10 12 12 -10 55 -20 40 -40 60
-40 40z"/>
<path d="M1426 6706 c3 -9 11 -16 16 -16 13 0 5 23 -10 28 -7 2 -10 -2 -6 -12z"/>
<path d="M1290 6692 c0 -5 14 -21 30 -37 17 -16 30 -39 30 -53 0 -34 99 -129
187 -181 40 -23 77 -51 83 -62 6 -10 36 -33 66 -50 45 -26 59 -41 80 -85 28
-59 160 -206 206 -230 55 -28 78 4 34 45 -16 15 -31 21 -43 17 -15 -5 -32 11
-81 75 -34 45 -62 89 -62 97 0 8 -11 30 -25 48 -14 18 -25 46 -25 62 0 17 -9
37 -22 49 -43 40 -130 93 -153 93 -32 0 -105 56 -105 80 0 15 -12 26 -42 39
-24 10 -65 37 -93 60 -49 41 -65 49 -65 33z"/>
<path d="M1547 6573 c-11 -10 -8 -43 3 -43 6 0 10 11 10 25 0 26 -2 29 -13 18z"/>
<path d="M4566 6263 c106 -301 122 -349 159 -465 20 -65 39 -118 42 -118 20 0
-34 234 -94 403 -40 115 -134 320 -152 331 -6 4 14 -64 45 -151z"/>
<path d="M4887 6404 c-11 -11 -8 -54 3 -54 6 0 13 6 16 14 7 17 -9 50 -19 40z"/>
<path d="M4520 6163 c0 -12 5 -25 10 -28 13 -8 13 15 0 35 -8 12 -10 11 -10
-7z"/>
<path d="M4580 6009 c0 -6 32 -98 49 -143 6 -16 14 -27 17 -24 6 6 -44 149
-57 163 -5 5 -9 7 -9 4z"/>
<path d="M1780 5600 c0 -13 28 -25 38 -16 3 4 0 11 -8 16 -20 13 -30 12 -30 0z"/>
<path d="M4507 5530 c3 -30 9 -64 14 -75 14 -36 9 46 -6 90 l-14 40 6 -55z"/>
<path d="M4374 5462 c11 -76 29 -147 34 -133 6 19 -16 142 -29 161 -8 11 -9 3
-5 -28z"/>
<path d="M4071 5464 c-1 -18 8 -74 19 -127 10 -52 23 -145 29 -207 5 -61 13
-115 17 -118 11 -11 -4 213 -21 308 -8 47 -21 105 -29 130 -13 42 -14 43 -15
14z"/>
<path d="M4236 5381 c3 -46 9 -91 14 -100 14 -24 12 18 -5 109 l-14 75 5 -84z"/>
<path d="M4000 5383 c0 -5 7 -48 16 -98 8 -49 17 -157 20 -240 6 -172 11 -218
25 -210 25 16 -2 386 -36 503 -14 46 -25 67 -25 45z"/>
<path d="M4660 5341 c0 -11 5 -23 10 -26 6 -4 10 5 10 19 0 14 -4 26 -10 26
-5 0 -10 -9 -10 -19z"/>
<path d="M4472 5315 c0 -16 2 -22 5 -12 2 9 2 23 0 30 -3 6 -5 -1 -5 -18z"/>
<path d="M1603 5266 c-26 -24 -45 -47 -42 -50 3 -3 27 17 54 44 61 62 54 65
-12 6z"/>
<path d="M4403 5260 c4 -18 7 -36 7 -41 0 -5 4 -9 8 -9 11 0 2 69 -11 77 -7 4
-8 -5 -4 -27z"/>
<path d="M4202 4970 c0 -14 2 -19 5 -12 2 6 2 18 0 25 -3 6 -5 1 -5 -13z"/>
<path d="M3398 4910 c-13 -81 -39 -333 -34 -337 14 -14 48 231 44 317 l-3 65
-7 -45z"/>
<path d="M3292 4644 c-25 -158 -26 -215 -3 -160 17 43 33 171 29 246 -3 62 -4
58 -26 -86z"/>
<path d="M3515 4673 c-4 -27 -14 -74 -22 -106 -9 -31 -13 -60 -9 -64 12 -12
24 17 36 86 6 37 13 81 16 99 4 18 2 32 -4 32 -5 0 -13 -21 -17 -47z"/>
<path d="M1662 4385 c-35 -71 -37 -80 -21 -69 18 11 69 97 69 116 0 34 -16 18
-48 -47z"/>
<path d="M1440 4425 c-6 -8 -10 -22 -8 -32 3 -14 8 -11 21 15 18 32 9 44 -13
17z"/>
<path d="M3317 4423 c-11 -20 -17 -63 -8 -63 10 0 26 58 18 66 -3 3 -7 2 -10
-3z"/>
<path d="M7183 10933 c9 -9 19 -14 23 -11 10 10 -6 28 -24 28 -15 0 -15 -1 1
-17z"/>
<path d="M3780 10711 c0 -13 29 -41 42 -41 6 0 37 -16 70 -36 32 -20 61 -34
63 -32 5 5 -31 33 -109 85 -49 34 -66 40 -66 24z"/>
<path d="M3960 10683 c0 -20 38 -43 130 -78 103 -40 152 -63 253 -119 43 -24
74 -36 85 -31 15 6 14 9 -7 26 -38 31 -177 104 -292 153 -112 49 -169 65 -169
49z"/>
<path d="M4090 10520 c0 -10 411 -220 431 -220 47 0 -181 151 -308 204 -63 26
-123 34 -123 16z"/>
<path d="M4496 10402 c-7 -12 60 -74 124 -114 61 -38 79 -47 128 -58 55 -13
45 7 -23 44 -36 20 -98 59 -137 86 -73 51 -83 56 -92 42z"/>
<path d="M5950 10227 c0 -50 93 -273 216 -518 160 -322 213 -468 216 -604 1
-38 -2 -167 -7 -285 -7 -208 -7 -216 13 -240 l20 -25 -5 100 c-4 71 1 147 16
264 l22 165 -26 110 c-45 191 -55 217 -140 381 -46 88 -95 189 -110 225 -15
36 -65 144 -111 242 -46 97 -84 181 -84 187 0 6 -4 11 -10 11 -5 0 -10 -6 -10
-13z"/>
<path d="M6090 10066 c0 -8 5 -18 10 -21 6 -3 10 1 10 9 0 8 -4 18 -10 21 -5
3 -10 -1 -10 -9z"/>
<path d="M6210 9965 c0 -26 102 -194 108 -177 2 7 -2 21 -10 30 -8 9 -22 37
-31 62 -9 25 -28 59 -42 75 -21 27 -24 28 -25 10z"/>
<path d="M6340 9569 c0 -8 7 -24 16 -35 14 -18 15 -18 8 6 -8 31 -24 50 -24
29z"/>
<path d="M5230 9535 c0 -39 80 -158 95 -143 7 7 -52 119 -76 143 -19 19 -19
19 -19 0z"/>
<path d="M5406 9381 c14 -27 40 -62 57 -78 l30 -28 -32 60 c-19 33 -40 68 -49
78 -29 33 -33 16 -6 -32z"/>
<path d="M5510 9357 c0 -20 53 -93 58 -79 4 12 -42 92 -53 92 -3 0 -5 -6 -5
-13z"/>
<path d="M5720 9358 c0 -17 40 -52 49 -42 3 2 -7 17 -22 32 -21 21 -27 23 -27
10z"/>
<path d="M5832 9204 c7 -15 14 -21 16 -15 5 16 -5 41 -17 41 -7 0 -6 -10 1
-26z"/>
<path d="M3801 8363 c-1 -69 3 -113 9 -113 12 0 12 163 0 200 -5 16 -8 -16 -9
-87z"/>
<path d="M3720 8345 c0 -33 5 -67 10 -75 7 -11 10 3 10 45 0 33 -5 67 -10 75
-7 11 -10 -3 -10 -45z"/>
<path d="M6910 8271 c0 -6 14 -79 30 -163 34 -167 83 -350 112 -413 l18 -40
-6 45 c-4 25 -20 99 -36 165 -16 66 -34 166 -38 223 -9 108 -38 192 -66 192
-8 0 -14 -4 -14 -9z"/>
<path d="M7024 8033 c3 -10 15 -63 26 -118 11 -55 30 -131 42 -170 22 -68 23
-69 26 -33 6 65 -69 338 -93 338 -4 0 -4 -8 -1 -17z"/>
<path d="M2352 8409 c2 -7 10 -15 17 -17 8 -3 12 1 9 9 -2 7 -10 15 -17 17 -8
3 -12 -1 -9 -9z"/>
<path d="M5348 5725 c2 -14 6 -25 8 -25 2 0 4 11 4 25 0 14 -4 25 -9 25 -4 0
-6 -11 -3 -25z"/>
<path d="M4625 4970 c-66 -66 -116 -120 -111 -120 18 0 115 81 142 117 15 21
44 55 63 75 19 21 33 40 30 42 -3 3 -59 -49 -124 -114z"/>
<path d="M3810 3955 c-13 -14 -19 -25 -13 -25 12 0 48 38 41 45 -2 3 -15 -6
-28 -20z"/>
<path d="M3650 3794 c-52 -53 -84 -91 -71 -84 31 16 114 93 153 142 53 67 15
40 -82 -58z"/>
<path d="M3670 3715 c-35 -36 -60 -65 -55 -65 11 1 43 28 100 88 64 68 25 48
-45 -23z"/>
<path d="M3685 3599 c-105 -101 -273 -286 -288 -317 -12 -24 379 371 392 397
7 11 9 21 6 21 -2 0 -52 -46 -110 -101z"/>
<path d="M3565 3610 c-10 -11 -16 -22 -13 -25 3 -3 13 4 23 15 10 11 16 22 13
25 -3 3 -13 -4 -23 -15z"/>
<path d="M3606 3369 c-53 -55 -96 -106 -96 -112 0 -14 43 27 132 126 39 43 68
80 66 83 -3 2 -49 -41 -102 -97z"/>
<path d="M3270 3386 c-6 -9 -10 -21 -8 -28 3 -8 9 -4 17 10 15 28 9 39 -9 18z"/>
<path d="M3067 3302 c-19 -21 -22 -32 -7 -32 10 0 34 39 27 46 -2 2 -11 -4
-20 -14z"/>
<path d="M3409 3139 c-33 -44 -59 -82 -57 -85 3 -2 29 26 59 63 75 93 82 103
70 103 -6 0 -38 -36 -72 -81z"/>
<path d="M3296 3143 c-14 -29 -24 -53 -21 -53 11 0 57 80 53 92 -3 7 -17 -11
-32 -39z"/>
<path d="M3482 3086 c-109 -137 -110 -161 -2 -31 40 46 70 90 68 97 -3 7 -32
-23 -66 -66z"/>
<path d="M3600 3078 c-154 -178 -228 -298 -280 -458 -35 -106 -40 -183 -6 -95
42 112 143 297 225 415 106 151 144 210 138 217 -3 2 -37 -33 -77 -79z"/>
<path d="M3266 2918 c-19 -30 -32 -83 -18 -74 10 6 45 96 37 96 -3 0 -11 -10
-19 -22z"/>
<path d="M3537 2828 c-38 -59 -140 -259 -134 -264 4 -5 160 258 170 289 11 31
-8 18 -36 -25z"/>
<path d="M3561 2705 c-68 -77 -148 -296 -157 -430 -7 -94 6 -70 45 80 22 88
47 153 93 243 35 68 65 128 66 133 8 21 -18 7 -47 -26z"/>
<path d="M3202 2700 c0 -14 2 -19 5 -12 2 6 2 18 0 25 -3 6 -5 1 -5 -13z"/>
<path d="M4429 2635 c-12 -19 -40 -212 -37 -251 l3 -39 13 40 c26 82 42 284
21 250z"/>
<path d="M7390 2610 c30 -5 78 -8 105 -8 l50 1 -55 7 c-30 5 -77 8 -105 8
l-50 -1 55 -7z"/>
<path d="M3592 2528 c-42 -74 -84 -185 -80 -211 2 -15 20 16 55 93 29 63 57
127 62 143 18 46 -6 30 -37 -25z"/>
<path d="M4126 2415 c-3 -9 -6 -56 -6 -103 1 -104 18 -93 27 17 6 69 -7 122
-21 86z"/>
<path d="M3656 2223 c-37 -74 -87 -225 -81 -242 6 -14 7 -14 15 -1 20 37 103
290 95 290 -3 0 -15 -21 -29 -47z"/>
<path d="M4282 2110 c0 -14 2 -19 5 -12 2 6 2 18 0 25 -3 6 -5 1 -5 -13z"/>
<path d="M4186 2028 c-12 -59 -17 -142 -8 -133 11 11 28 155 18 155 -3 0 -8
-10 -10 -22z"/>
<path d="M3972 1566 c-16 -83 -27 -203 -19 -195 9 8 39 215 35 242 -2 12 -9
-9 -16 -47z"/>
<path d="M3787 901 c-9 -30 -17 -66 -17 -79 0 -20 2 -22 15 -12 18 15 28 64
23 111 -4 34 -4 33 -21 -20z"/>
<path d="M7810 4635 c0 -8 5 -15 10 -15 6 0 10 7 10 15 0 8 -4 15 -10 15 -5 0
-10 -7 -10 -15z"/>
<path d="M7332 4820 c0 -19 2 -27 5 -17 2 9 2 25 0 35 -3 9 -5 1 -5 -18z"/>
<path d="M7290 4023 c0 -21 20 -64 46 -99 35 -45 41 -37 14 17 -24 51 -59 99
-60 82z"/>
<path d="M3130 12149 c13 -22 37 -35 48 -24 7 7 -34 45 -49 45 -6 0 -5 -9 1
-21z"/>
<path d="M3190 11902 c0 -13 23 -32 38 -32 7 0 10 4 7 10 -9 14 -45 32 -45 22z"/>
</g>
</svg>
